<svg id="Layer_1" data-name="Layer 1" xmlns="http://www.w3.org/2000/svg" viewBox="0 0 280.59 142.07"><defs><style>.cls-1{fill:#323843;}.cls-2{fill:#009fe3;}</style></defs><title>Continuous_Pipe</title><path class="cls-1" d="M0,101.44Q0,90.07,10.3,90.07a18,18,0,0,1,6.76,1.28v2.31a16.62,16.62,0,0,0-6.5-1.33q-4.22,0-6.19,2.19t-2,6.92q0,4.73,2,6.92t6.19,2.19a16.66,16.66,0,0,0,6.5-1.3v2.31a18.1,18.1,0,0,1-6.68,1.25H10.3Q0,112.82,0,101.44Z"/><path class="cls-1" d="M27.08,101.44q0-11.37,10.29-11.38t10.31,11.38q0,11.37-10.31,11.37T27.08,101.44Zm4.3-6.92q-1.9,2.19-1.9,6.92t1.9,6.92q1.9,2.19,6,2.19t6-2.19q1.89-2.19,1.89-6.92t-1.89-6.92q-1.89-2.19-6-2.19T31.39,94.52Z"/><path class="cls-1" d="M59,112.56V90.36h2.73L75,109.06V90.36h2.4v22.2h-2.7L61.41,93.85v18.7Z"/><path class="cls-1" d="M88,92.68V90.36h18.05v2.32H98.24v19.87h-2.4V92.68Z"/><path class="cls-1" d="M116.32,112.56V90.36h2.4v22.2Z"/><path class="cls-1" d="M131,112.56V90.36h2.73L147,109.06V90.36h2.4v22.2h-2.7l-13.28-18.7v18.7Z"/><path class="cls-1" d="M161.56,103.44V90.36H164v13.21q0,7.05,6.62,7.05t6.62-7.05V90.36h2.4v13.08q0,4.57-2.34,7a10.5,10.5,0,0,1-13.38,0Q161.56,108,161.56,103.44Z"/><path class="cls-1" d="M191.15,101.44q0-11.37,10.29-11.38t10.31,11.38q0,11.37-10.31,11.37T191.15,101.44Zm4.3-6.92q-1.9,2.19-1.9,6.92t1.9,6.92q1.9,2.19,6,2.19t6-2.19q1.89-2.19,1.89-6.92t-1.89-6.92q-1.89-2.19-6-2.19T195.45,94.52Z"/><path class="cls-1" d="M223.11,103.44V90.36h2.4v13.21q0,7.05,6.62,7.05t6.62-7.05V90.36h2.4v13.08q0,4.57-2.34,7a10.5,10.5,0,0,1-13.38,0Q223.11,108,223.11,103.44Z"/><path class="cls-1" d="M252.59,96.24a5.86,5.86,0,0,1,1.86-4.37q1.86-1.8,5.8-1.8a12.66,12.66,0,0,1,5.56,1.32v2.47a10.65,10.65,0,0,0-5.33-1.4,7.14,7.14,0,0,0-4.07,1A3.21,3.21,0,0,0,255,96.24a2.38,2.38,0,0,0,.92,1.9,5.89,5.89,0,0,0,2.26,1.13q1.35.37,2.95.93a26.86,26.86,0,0,1,2.94,1.23,5.78,5.78,0,0,1,2.26,2.06,6,6,0,0,1,.92,3.4,5.14,5.14,0,0,1-2.08,4.34,9.43,9.43,0,0,1-5.81,1.58,13.82,13.82,0,0,1-6.57-1.56v-2.6a11.19,11.19,0,0,0,6.39,1.77q5.64,0,5.66-3.53a3.61,3.61,0,0,0-.92-2.51,5.39,5.39,0,0,0-2.26-1.49l-2.94-1q-1.59-.52-2.94-1.06a5.34,5.34,0,0,1-2.27-1.71A4.59,4.59,0,0,1,252.59,96.24Z"/><path class="cls-1" d="M101.46,142.07V125.42h6.23a6.59,6.59,0,0,1,4.57,1.45,6.09,6.09,0,0,1,0,8.26,6.61,6.61,0,0,1-4.57,1.44h-3.23v5.5Zm3-8.19h3a3.78,3.78,0,0,0,2.69-.73,2.93,2.93,0,0,0,.72-2.15,2.86,2.86,0,0,0-.73-2.12,3.83,3.83,0,0,0-2.69-.72h-3Z"/><path class="cls-1" d="M121.95,142.07V125.42h3v16.65Z"/><path class="cls-1" d="M134.23,142.07V125.42h6.23a6.59,6.59,0,0,1,4.57,1.45,6.09,6.09,0,0,1,0,8.26,6.61,6.61,0,0,1-4.57,1.44h-3.23v5.5Zm3-8.19h3a3.78,3.78,0,0,0,2.69-.73,2.93,2.93,0,0,0,.72-2.15,2.86,2.86,0,0,0-.73-2.12,3.83,3.83,0,0,0-2.69-.72h-3Z"/><path class="cls-1" d="M154.71,142.07V125.42h11.08v2.69h-8.08v4.22h7v2.83h-7v4.22h8.08v2.69Z"/><path class="cls-1" d="M270.13,83.27v-.58h4.51v.58h-2v5h-.6v-5Z"/><path class="cls-1" d="M275.47,88.24V82.69h.65L278,85.51l1.91-2.82h.65v5.55H280V83.67l-2,2.83-2-2.83v4.57Z"/><path class="cls-2" d="M140,64.91H128.86V59.77a23.64,23.64,0,0,1,23.32-23.64h.69A12.49,12.49,0,1,0,140,23.64v.28A23.64,23.64,0,1,1,128.84,3.55L122.95,13a12.49,12.49,0,1,0,5.91,10.79v-.19a23.64,23.64,0,1,1,24.25,23.65h-.8A12.49,12.49,0,0,0,140,59.77Z"/><path class="cls-2" d="M134.43,46.13"/></svg>