<?xml version="1.0" encoding="UTF-8"?>
<svg width="638px" height="302px" viewBox="0 0 638 302" version="1.1" xmlns="http://www.w3.org/2000/svg" xmlns:xlink="http://www.w3.org/1999/xlink" style="background: #FFFFFF;">
    <!-- Generator: Sketch 44.1 (41455) - http://www.bohemiancoding.com/sketch -->
    <title>Artboard</title>
    <desc>Created with Sketch.</desc>
    <defs></defs>
    <g id="Page-1" stroke="none" stroke-width="1" fill="none" fill-rule="evenodd">
        <g id="Artboard">
            <g id="Group-2" transform="translate(50.000000, 206.000000)" stroke="#979797" stroke-linecap="square" stroke-dasharray="5">
                <path d="M0.499092561,61.5 L551.500829,61.5" id="Line"></path>
                <path d="M162.497512,1.5 L363.5,1.5" id="Line"></path>
                <path d="M49.7851297,61.5 C107.622195,61.5 133.63429,1.2895168 163.144295,1.73735728" id="Line"></path>
                <path d="M360.78513,61.5 C418.622195,61.5 444.63429,1.2895168 474.144295,1.73735728" id="Line" transform="translate(417.464713, 31.617436) scale(-1, 1) translate(-417.464713, -31.617436) "></path>
            </g>
            <rect id="Rectangle" fill="#FFFFFF" x="177" y="247" width="58" height="37"></rect>
            <g id="Trial-container" transform="translate(235.000000, 191.000000)">
                <rect id="Rectangle" fill="#FFFFFF" x="0" y="0" width="58" height="37"></rect>
                <g id="noun_927911_cc" transform="translate(7.733333, 5.192982)" fill-rule="nonzero" fill="#FF415C">
                    <path d="M41.7968254,6.2593985 C41.7968254,6.2593985 41.7968254,6.21303258 41.7968254,6.21303258 C41.7968254,6.21303258 41.7968254,6.21303258 41.7968254,6.21303258 C41.7968254,6.21303258 41.7968254,6.16666667 41.7968254,6.16666667 C41.7968254,6.16666667 41.7968254,6.16666667 41.7968254,6.16666667 C41.7968254,6.16666667 41.7968254,6.16666667 41.7968254,6.16666667 C41.7968254,6.12030075 41.7507937,6.12030075 41.7507937,6.07393484 C41.7507937,6.07393484 41.7507937,6.07393484 41.7507937,6.07393484 C41.7507937,6.07393484 41.7507937,6.02756892 41.7047619,6.02756892 C41.7047619,6.02756892 41.7047619,6.02756892 41.7047619,6.02756892 C41.7047619,6.02756892 41.6587302,5.98120301 41.6587302,5.98120301 C41.6587302,5.98120301 41.6126984,5.93483709 41.6126984,5.93483709 C41.6126984,5.93483709 41.6126984,5.93483709 41.6126984,5.93483709 L30.3349206,0.370927318 C30.3349206,0.370927318 30.2888889,0.370927318 30.2888889,0.370927318 C30.2428571,0.370927318 30.2428571,0.324561404 30.1968254,0.324561404 C30.1507937,0.324561404 30.1047619,0.324561404 30.1047619,0.324561404 C30.1047619,0.324561404 30.0587302,0.324561404 30.0587302,0.324561404 L30.0587302,0.324561404 C30.0587302,0.324561404 30.0587302,0.324561404 30.0587302,0.324561404 L0.414285714,9.69047619 C0.414285714,9.69047619 0.414285714,9.69047619 0.414285714,9.69047619 C0.414285714,9.69047619 0.414285714,9.69047619 0.414285714,9.69047619 C0.368253968,9.73684211 0.322222222,9.73684211 0.322222222,9.73684211 C0.322222222,9.73684211 0.322222222,9.73684211 0.322222222,9.73684211 C0.322222222,9.73684211 0.276190476,9.73684211 0.276190476,9.78320802 C0.276190476,9.78320802 0.276190476,9.78320802 0.276190476,9.78320802 C0.276190476,9.78320802 0.23015873,9.82957393 0.23015873,9.82957393 C0.23015873,9.82957393 0.184126984,9.87593985 0.184126984,9.87593985 C0.184126984,9.87593985 0.184126984,9.87593985 0.184126984,9.87593985 C0.184126984,9.87593985 0.184126984,9.87593985 0.184126984,9.87593985 C0.184126984,9.87593985 0.184126984,9.92230576 0.184126984,9.96867168 C0.184126984,10.0150376 0.184126984,10.0150376 0.184126984,10.0614035 C0.184126984,10.0614035 0.184126984,10.0614035 0.184126984,10.0614035 C0.184126984,10.0614035 0.184126984,10.0614035 0.184126984,10.0614035 L0.184126984,22.858396 C0.184126984,22.858396 0.184126984,22.9047619 0.184126984,22.9047619 C0.184126984,22.9511278 0.184126984,22.9511278 0.184126984,22.9974937 C0.184126984,23.0438596 0.23015873,23.0438596 0.23015873,23.0902256 C0.23015873,23.1365915 0.276190476,23.1365915 0.276190476,23.1829574 C0.276190476,23.2293233 0.322222222,23.2293233 0.368253968,23.2293233 C0.368253968,23.2293233 0.414285714,23.2756892 0.414285714,23.2756892 L11.6460317,28.7932331 C11.6460317,28.7932331 11.6460317,28.7932331 11.6460317,28.7932331 C11.6460317,28.7932331 11.6460317,28.7932331 11.6920635,28.7932331 C11.7380952,28.7932331 11.784127,28.839599 11.8301587,28.839599 C11.8301587,28.839599 11.8301587,28.839599 11.8301587,28.839599 C11.8761905,28.839599 11.9222222,28.839599 11.9222222,28.839599 C11.9222222,28.839599 11.9222222,28.839599 11.9222222,28.839599 L41.5206349,19.4736842 C41.5206349,19.4736842 41.5206349,19.4736842 41.5206349,19.4736842 C41.5666667,19.4736842 41.5666667,19.4273183 41.6126984,19.4273183 C41.6587302,19.4273183 41.6587302,19.3809524 41.6587302,19.3809524 C41.6587302,19.3809524 41.7047619,19.3345865 41.7047619,19.3345865 C41.7047619,19.2882206 41.7507937,19.2882206 41.7507937,19.2418546 C41.7507937,19.1954887 41.7507937,19.1954887 41.7507937,19.1491228 C41.7507937,19.1027569 41.7507937,19.1027569 41.7507937,19.056391 C41.7507937,19.056391 41.7507937,19.056391 41.7507937,19.056391 L41.7507937,6.2593985 L41.7968254,6.2593985 Z M30.1047619,1.2518797 L40.1396825,6.16666667 L11.784127,15.1616541 L1.74920635,10.2005013 L30.1047619,1.2518797 Z M0.966666667,10.8496241 L11.2777778,15.9035088 L11.2777778,27.726817 L0.966666667,22.6729323 L0.966666667,10.8496241 Z M12.1984127,15.9498747 L40.8761905,6.86215539 L40.8761905,18.7318296 L12.1984127,27.8195489 L12.1984127,15.9498747 Z" id="Shape"></path>
                    <path d="M16.4333333,15.9498747 C16.3873016,15.9498747 16.3873016,15.9498747 16.4333333,15.9498747 C16.4333333,15.9035088 16.3873016,15.8571429 16.3873016,15.8571429 C16.3873016,15.8107769 16.3412698,15.8107769 16.3412698,15.8107769 C16.3412698,15.8107769 16.2952381,15.764411 16.2952381,15.764411 C16.2492063,15.764411 16.2492063,15.7180451 16.2031746,15.7180451 C16.2031746,15.7180451 16.1571429,15.7180451 16.1111111,15.7180451 C16.0650794,15.7180451 16.0650794,15.7180451 16.0190476,15.7180451 C16.0190476,15.7180451 16.0190476,15.7180451 16.0190476,15.7180451 C15.9730159,15.7180451 15.9730159,15.7180451 15.9730159,15.7180451 C15.9730159,15.7180451 15.9269841,15.7180451 15.9269841,15.7180451 L13.2111111,16.5989975 C12.9809524,16.6917293 12.8428571,16.9235589 12.9349206,17.1553885 C12.9809524,17.3408521 13.1650794,17.4799499 13.3492063,17.4799499 C13.3952381,17.4799499 13.4412698,17.4799499 13.4873016,17.4799499 L15.6047619,16.7844612 L15.6047619,25.1303258 L13.2111111,25.8721805 C12.9809524,25.9649123 12.8428571,26.1967419 12.9349206,26.4285714 C12.9809524,26.6140351 13.1650794,26.7531328 13.3492063,26.7531328 C13.3952381,26.7531328 13.4412698,26.7531328 13.4873016,26.7531328 L16.2031746,25.8721805 C16.2031746,25.8721805 16.2031746,25.8721805 16.2031746,25.8721805 C16.2492063,25.8721805 16.2492063,25.8258145 16.2952381,25.8258145 C16.3412698,25.8258145 16.3412698,25.7794486 16.3412698,25.7794486 C16.3412698,25.7794486 16.3873016,25.7330827 16.3873016,25.7330827 C16.3873016,25.6867168 16.4333333,25.6867168 16.4333333,25.6403509 C16.4333333,25.593985 16.4333333,25.593985 16.4333333,25.547619 C16.4333333,25.5012531 16.4333333,25.5012531 16.4333333,25.4548872 C16.4333333,25.4548872 16.4333333,25.4548872 16.4333333,25.4548872 L16.4333333,16.1817043 C16.4333333,16.1353383 16.4333333,16.1353383 16.4333333,16.1353383 C16.4333333,15.9962406 16.4333333,15.9962406 16.4333333,15.9498747 Z" id="Shape"></path>
                    <path d="M18.9650794,14.6516291 C18.7349206,14.6516291 18.5047619,14.8370927 18.5047619,15.1152882 L18.5047619,24.3884712 C18.5047619,24.6203008 18.6888889,24.8521303 18.9650794,24.8521303 C19.1952381,24.8521303 19.4253968,24.6666667 19.4253968,24.3884712 L19.4253968,15.1152882 C19.4253968,14.8370927 19.2412698,14.6516291 18.9650794,14.6516291 Z" id="Shape"></path>
                    <path d="M21.9571429,13.7243108 C21.7269841,13.7243108 21.4968254,13.9097744 21.4968254,14.1879699 L21.4968254,23.4611529 C21.4968254,23.6929825 21.6809524,23.924812 21.9571429,23.924812 C22.2333333,23.924812 22.4174603,23.7393484 22.4174603,23.4611529 L22.4174603,14.1879699 C22.4174603,13.9097744 22.2333333,13.7243108 21.9571429,13.7243108 Z" id="Shape"></path>
                    <path d="M24.9952381,12.7506266 C24.7650794,12.7506266 24.5349206,12.9360902 24.5349206,13.2142857 L24.5349206,22.4874687 C24.5349206,22.7192982 24.7190476,22.9511278 24.9952381,22.9511278 C25.2253968,22.9511278 25.4555556,22.7656642 25.4555556,22.4874687 L25.4555556,13.2142857 C25.4095238,12.9824561 25.2253968,12.7506266 24.9952381,12.7506266 Z" id="Shape"></path>
                    <path d="M3.36031746,12.8433584 C3.13015873,12.8433584 2.9,13.0288221 2.9,13.3070175 L2.9,22.6265664 C2.9,22.858396 3.08412698,23.0902256 3.36031746,23.0902256 C3.59047619,23.0902256 3.82063492,22.9047619 3.82063492,22.6265664 L3.82063492,13.3070175 C3.77460317,13.075188 3.59047619,12.8433584 3.36031746,12.8433584 Z" id="Shape"></path>
                    <path d="M6.16825397,14.2343358 C5.93809524,14.2343358 5.70793651,14.4197995 5.70793651,14.697995 L5.70793651,24.0175439 C5.70793651,24.2493734 5.89206349,24.481203 6.16825397,24.481203 C6.44444444,24.481203 6.62857143,24.2957393 6.62857143,24.0175439 L6.62857143,14.697995 C6.58253968,14.4197995 6.3984127,14.2343358 6.16825397,14.2343358 Z" id="Shape"></path>
                    <path d="M8.97619048,15.5325815 C8.74603175,15.5325815 8.51587302,15.7180451 8.51587302,15.9962406 L8.51587302,25.4085213 C8.51587302,25.6403509 8.7,25.8721805 8.97619048,25.8721805 C9.20634921,25.8721805 9.43650794,25.6867168 9.43650794,25.4085213 L9.43650794,15.9498747 C9.39047619,15.7180451 9.20634921,15.5325815 8.97619048,15.5325815 Z" id="Shape"></path>
                    <path d="M27.9873016,11.8696742 C27.7571429,11.8696742 27.5269841,12.0551378 27.5269841,12.3333333 L27.5269841,21.5601504 C27.5269841,21.7919799 27.7111111,22.0238095 27.9873016,22.0238095 C28.2174603,22.0238095 28.447619,21.8383459 28.447619,21.5601504 L28.447619,12.3333333 C28.4015873,12.1015038 28.2174603,11.8696742 27.9873016,11.8696742 Z" id="Shape"></path>
                    <path d="M30.9793651,10.8496241 C30.7492063,10.8496241 30.5190476,11.0350877 30.5190476,11.3132832 L30.5190476,20.5864662 C30.5190476,20.8182957 30.7031746,21.0501253 30.9793651,21.0501253 C31.2095238,21.0501253 31.4396825,20.8646617 31.4396825,20.5864662 L31.4396825,11.3132832 C31.3936508,11.0814536 31.2095238,10.8496241 30.9793651,10.8496241 Z" id="Shape"></path>
                    <path d="M33.9714286,9.92230576 C33.7412698,9.92230576 33.5111111,10.1077694 33.5111111,10.3859649 L33.5111111,19.6591479 C33.5111111,19.8909774 33.6952381,20.122807 33.9714286,20.122807 C34.2015873,20.122807 34.431746,19.9373434 34.431746,19.6591479 L34.431746,10.3859649 C34.431746,10.1077694 34.2015873,9.92230576 33.9714286,9.92230576 Z" id="Shape"></path>
                    <path d="M39.5412698,17.5263158 L37.4238095,18.2218045 L37.4238095,9.73684211 L39.8174603,8.99498747 C40.047619,8.90225564 40.1857143,8.67042607 40.0936508,8.43859649 C40.0015873,8.20676692 39.7714286,8.06766917 39.5412698,8.160401 L36.8253968,8.99498747 C36.8253968,8.99498747 36.8253968,8.99498747 36.8253968,8.99498747 C36.7793651,8.99498747 36.7793651,9.04135338 36.7333333,9.04135338 C36.7333333,9.04135338 36.6873016,9.0877193 36.6873016,9.0877193 C36.6873016,9.0877193 36.6412698,9.13408521 36.6412698,9.13408521 C36.6412698,9.18045113 36.5952381,9.18045113 36.5952381,9.22681704 C36.5952381,9.27318296 36.5952381,9.27318296 36.5952381,9.31954887 C36.5952381,9.36591479 36.5952381,9.36591479 36.5952381,9.4122807 C36.5952381,9.4122807 36.5952381,9.4122807 36.5952381,9.4122807 L36.5952381,18.7781955 C36.5952381,18.8245614 36.5952381,18.8245614 36.5952381,18.8245614 C36.5952381,18.8245614 36.5952381,18.8709273 36.5952381,18.8709273 C36.5952381,18.8709273 36.5952381,18.8709273 36.5952381,18.8709273 C36.5952381,18.8709273 36.5952381,18.9172932 36.6412698,18.9172932 C36.6412698,18.9636591 36.6873016,18.9636591 36.6873016,19.0100251 C36.6873016,19.0100251 36.7333333,19.056391 36.7333333,19.056391 C36.7793651,19.1027569 36.7793651,19.1027569 36.8253968,19.1027569 C36.8253968,19.1027569 36.8714286,19.1027569 36.8714286,19.1027569 C36.9174603,19.1027569 36.9634921,19.1491228 37.0095238,19.1491228 C37.0555556,19.1491228 37.1015873,19.1491228 37.147619,19.1491228 L39.8634921,18.2681704 C40.0936508,18.1754386 40.231746,17.943609 40.1396825,17.7117794 C40.047619,17.5726817 39.7714286,17.433584 39.5412698,17.5263158 Z" id="Shape"></path>
                </g>
            </g>
            <g id="Trial-container" transform="translate(323.000000, 191.000000)">
                <rect id="Rectangle" fill="#FFFFFF" x="0" y="0" width="58" height="37"></rect>
                <g id="noun_927911_cc" transform="translate(7.733333, 5.192982)" fill-rule="nonzero" fill="#FF415C">
                    <path d="M41.7968254,6.2593985 C41.7968254,6.2593985 41.7968254,6.21303258 41.7968254,6.21303258 C41.7968254,6.21303258 41.7968254,6.21303258 41.7968254,6.21303258 C41.7968254,6.21303258 41.7968254,6.16666667 41.7968254,6.16666667 C41.7968254,6.16666667 41.7968254,6.16666667 41.7968254,6.16666667 C41.7968254,6.16666667 41.7968254,6.16666667 41.7968254,6.16666667 C41.7968254,6.12030075 41.7507937,6.12030075 41.7507937,6.07393484 C41.7507937,6.07393484 41.7507937,6.07393484 41.7507937,6.07393484 C41.7507937,6.07393484 41.7507937,6.02756892 41.7047619,6.02756892 C41.7047619,6.02756892 41.7047619,6.02756892 41.7047619,6.02756892 C41.7047619,6.02756892 41.6587302,5.98120301 41.6587302,5.98120301 C41.6587302,5.98120301 41.6126984,5.93483709 41.6126984,5.93483709 C41.6126984,5.93483709 41.6126984,5.93483709 41.6126984,5.93483709 L30.3349206,0.370927318 C30.3349206,0.370927318 30.2888889,0.370927318 30.2888889,0.370927318 C30.2428571,0.370927318 30.2428571,0.324561404 30.1968254,0.324561404 C30.1507937,0.324561404 30.1047619,0.324561404 30.1047619,0.324561404 C30.1047619,0.324561404 30.0587302,0.324561404 30.0587302,0.324561404 L30.0587302,0.324561404 C30.0587302,0.324561404 30.0587302,0.324561404 30.0587302,0.324561404 L0.414285714,9.69047619 C0.414285714,9.69047619 0.414285714,9.69047619 0.414285714,9.69047619 C0.414285714,9.69047619 0.414285714,9.69047619 0.414285714,9.69047619 C0.368253968,9.73684211 0.322222222,9.73684211 0.322222222,9.73684211 C0.322222222,9.73684211 0.322222222,9.73684211 0.322222222,9.73684211 C0.322222222,9.73684211 0.276190476,9.73684211 0.276190476,9.78320802 C0.276190476,9.78320802 0.276190476,9.78320802 0.276190476,9.78320802 C0.276190476,9.78320802 0.23015873,9.82957393 0.23015873,9.82957393 C0.23015873,9.82957393 0.184126984,9.87593985 0.184126984,9.87593985 C0.184126984,9.87593985 0.184126984,9.87593985 0.184126984,9.87593985 C0.184126984,9.87593985 0.184126984,9.87593985 0.184126984,9.87593985 C0.184126984,9.87593985 0.184126984,9.92230576 0.184126984,9.96867168 C0.184126984,10.0150376 0.184126984,10.0150376 0.184126984,10.0614035 C0.184126984,10.0614035 0.184126984,10.0614035 0.184126984,10.0614035 C0.184126984,10.0614035 0.184126984,10.0614035 0.184126984,10.0614035 L0.184126984,22.858396 C0.184126984,22.858396 0.184126984,22.9047619 0.184126984,22.9047619 C0.184126984,22.9511278 0.184126984,22.9511278 0.184126984,22.9974937 C0.184126984,23.0438596 0.23015873,23.0438596 0.23015873,23.0902256 C0.23015873,23.1365915 0.276190476,23.1365915 0.276190476,23.1829574 C0.276190476,23.2293233 0.322222222,23.2293233 0.368253968,23.2293233 C0.368253968,23.2293233 0.414285714,23.2756892 0.414285714,23.2756892 L11.6460317,28.7932331 C11.6460317,28.7932331 11.6460317,28.7932331 11.6460317,28.7932331 C11.6460317,28.7932331 11.6460317,28.7932331 11.6920635,28.7932331 C11.7380952,28.7932331 11.784127,28.839599 11.8301587,28.839599 C11.8301587,28.839599 11.8301587,28.839599 11.8301587,28.839599 C11.8761905,28.839599 11.9222222,28.839599 11.9222222,28.839599 C11.9222222,28.839599 11.9222222,28.839599 11.9222222,28.839599 L41.5206349,19.4736842 C41.5206349,19.4736842 41.5206349,19.4736842 41.5206349,19.4736842 C41.5666667,19.4736842 41.5666667,19.4273183 41.6126984,19.4273183 C41.6587302,19.4273183 41.6587302,19.3809524 41.6587302,19.3809524 C41.6587302,19.3809524 41.7047619,19.3345865 41.7047619,19.3345865 C41.7047619,19.2882206 41.7507937,19.2882206 41.7507937,19.2418546 C41.7507937,19.1954887 41.7507937,19.1954887 41.7507937,19.1491228 C41.7507937,19.1027569 41.7507937,19.1027569 41.7507937,19.056391 C41.7507937,19.056391 41.7507937,19.056391 41.7507937,19.056391 L41.7507937,6.2593985 L41.7968254,6.2593985 Z M30.1047619,1.2518797 L40.1396825,6.16666667 L11.784127,15.1616541 L1.74920635,10.2005013 L30.1047619,1.2518797 Z M0.966666667,10.8496241 L11.2777778,15.9035088 L11.2777778,27.726817 L0.966666667,22.6729323 L0.966666667,10.8496241 Z M12.1984127,15.9498747 L40.8761905,6.86215539 L40.8761905,18.7318296 L12.1984127,27.8195489 L12.1984127,15.9498747 Z" id="Shape"></path>
                    <path d="M16.4333333,15.9498747 C16.3873016,15.9498747 16.3873016,15.9498747 16.4333333,15.9498747 C16.4333333,15.9035088 16.3873016,15.8571429 16.3873016,15.8571429 C16.3873016,15.8107769 16.3412698,15.8107769 16.3412698,15.8107769 C16.3412698,15.8107769 16.2952381,15.764411 16.2952381,15.764411 C16.2492063,15.764411 16.2492063,15.7180451 16.2031746,15.7180451 C16.2031746,15.7180451 16.1571429,15.7180451 16.1111111,15.7180451 C16.0650794,15.7180451 16.0650794,15.7180451 16.0190476,15.7180451 C16.0190476,15.7180451 16.0190476,15.7180451 16.0190476,15.7180451 C15.9730159,15.7180451 15.9730159,15.7180451 15.9730159,15.7180451 C15.9730159,15.7180451 15.9269841,15.7180451 15.9269841,15.7180451 L13.2111111,16.5989975 C12.9809524,16.6917293 12.8428571,16.9235589 12.9349206,17.1553885 C12.9809524,17.3408521 13.1650794,17.4799499 13.3492063,17.4799499 C13.3952381,17.4799499 13.4412698,17.4799499 13.4873016,17.4799499 L15.6047619,16.7844612 L15.6047619,25.1303258 L13.2111111,25.8721805 C12.9809524,25.9649123 12.8428571,26.1967419 12.9349206,26.4285714 C12.9809524,26.6140351 13.1650794,26.7531328 13.3492063,26.7531328 C13.3952381,26.7531328 13.4412698,26.7531328 13.4873016,26.7531328 L16.2031746,25.8721805 C16.2031746,25.8721805 16.2031746,25.8721805 16.2031746,25.8721805 C16.2492063,25.8721805 16.2492063,25.8258145 16.2952381,25.8258145 C16.3412698,25.8258145 16.3412698,25.7794486 16.3412698,25.7794486 C16.3412698,25.7794486 16.3873016,25.7330827 16.3873016,25.7330827 C16.3873016,25.6867168 16.4333333,25.6867168 16.4333333,25.6403509 C16.4333333,25.593985 16.4333333,25.593985 16.4333333,25.547619 C16.4333333,25.5012531 16.4333333,25.5012531 16.4333333,25.4548872 C16.4333333,25.4548872 16.4333333,25.4548872 16.4333333,25.4548872 L16.4333333,16.1817043 C16.4333333,16.1353383 16.4333333,16.1353383 16.4333333,16.1353383 C16.4333333,15.9962406 16.4333333,15.9962406 16.4333333,15.9498747 Z" id="Shape"></path>
                    <path d="M18.9650794,14.6516291 C18.7349206,14.6516291 18.5047619,14.8370927 18.5047619,15.1152882 L18.5047619,24.3884712 C18.5047619,24.6203008 18.6888889,24.8521303 18.9650794,24.8521303 C19.1952381,24.8521303 19.4253968,24.6666667 19.4253968,24.3884712 L19.4253968,15.1152882 C19.4253968,14.8370927 19.2412698,14.6516291 18.9650794,14.6516291 Z" id="Shape"></path>
                    <path d="M21.9571429,13.7243108 C21.7269841,13.7243108 21.4968254,13.9097744 21.4968254,14.1879699 L21.4968254,23.4611529 C21.4968254,23.6929825 21.6809524,23.924812 21.9571429,23.924812 C22.2333333,23.924812 22.4174603,23.7393484 22.4174603,23.4611529 L22.4174603,14.1879699 C22.4174603,13.9097744 22.2333333,13.7243108 21.9571429,13.7243108 Z" id="Shape"></path>
                    <path d="M24.9952381,12.7506266 C24.7650794,12.7506266 24.5349206,12.9360902 24.5349206,13.2142857 L24.5349206,22.4874687 C24.5349206,22.7192982 24.7190476,22.9511278 24.9952381,22.9511278 C25.2253968,22.9511278 25.4555556,22.7656642 25.4555556,22.4874687 L25.4555556,13.2142857 C25.4095238,12.9824561 25.2253968,12.7506266 24.9952381,12.7506266 Z" id="Shape"></path>
                    <path d="M3.36031746,12.8433584 C3.13015873,12.8433584 2.9,13.0288221 2.9,13.3070175 L2.9,22.6265664 C2.9,22.858396 3.08412698,23.0902256 3.36031746,23.0902256 C3.59047619,23.0902256 3.82063492,22.9047619 3.82063492,22.6265664 L3.82063492,13.3070175 C3.77460317,13.075188 3.59047619,12.8433584 3.36031746,12.8433584 Z" id="Shape"></path>
                    <path d="M6.16825397,14.2343358 C5.93809524,14.2343358 5.70793651,14.4197995 5.70793651,14.697995 L5.70793651,24.0175439 C5.70793651,24.2493734 5.89206349,24.481203 6.16825397,24.481203 C6.44444444,24.481203 6.62857143,24.2957393 6.62857143,24.0175439 L6.62857143,14.697995 C6.58253968,14.4197995 6.3984127,14.2343358 6.16825397,14.2343358 Z" id="Shape"></path>
                    <path d="M8.97619048,15.5325815 C8.74603175,15.5325815 8.51587302,15.7180451 8.51587302,15.9962406 L8.51587302,25.4085213 C8.51587302,25.6403509 8.7,25.8721805 8.97619048,25.8721805 C9.20634921,25.8721805 9.43650794,25.6867168 9.43650794,25.4085213 L9.43650794,15.9498747 C9.39047619,15.7180451 9.20634921,15.5325815 8.97619048,15.5325815 Z" id="Shape"></path>
                    <path d="M27.9873016,11.8696742 C27.7571429,11.8696742 27.5269841,12.0551378 27.5269841,12.3333333 L27.5269841,21.5601504 C27.5269841,21.7919799 27.7111111,22.0238095 27.9873016,22.0238095 C28.2174603,22.0238095 28.447619,21.8383459 28.447619,21.5601504 L28.447619,12.3333333 C28.4015873,12.1015038 28.2174603,11.8696742 27.9873016,11.8696742 Z" id="Shape"></path>
                    <path d="M30.9793651,10.8496241 C30.7492063,10.8496241 30.5190476,11.0350877 30.5190476,11.3132832 L30.5190476,20.5864662 C30.5190476,20.8182957 30.7031746,21.0501253 30.9793651,21.0501253 C31.2095238,21.0501253 31.4396825,20.8646617 31.4396825,20.5864662 L31.4396825,11.3132832 C31.3936508,11.0814536 31.2095238,10.8496241 30.9793651,10.8496241 Z" id="Shape"></path>
                    <path d="M33.9714286,9.92230576 C33.7412698,9.92230576 33.5111111,10.1077694 33.5111111,10.3859649 L33.5111111,19.6591479 C33.5111111,19.8909774 33.6952381,20.122807 33.9714286,20.122807 C34.2015873,20.122807 34.431746,19.9373434 34.431746,19.6591479 L34.431746,10.3859649 C34.431746,10.1077694 34.2015873,9.92230576 33.9714286,9.92230576 Z" id="Shape"></path>
                    <path d="M39.5412698,17.5263158 L37.4238095,18.2218045 L37.4238095,9.73684211 L39.8174603,8.99498747 C40.047619,8.90225564 40.1857143,8.67042607 40.0936508,8.43859649 C40.0015873,8.20676692 39.7714286,8.06766917 39.5412698,8.160401 L36.8253968,8.99498747 C36.8253968,8.99498747 36.8253968,8.99498747 36.8253968,8.99498747 C36.7793651,8.99498747 36.7793651,9.04135338 36.7333333,9.04135338 C36.7333333,9.04135338 36.6873016,9.0877193 36.6873016,9.0877193 C36.6873016,9.0877193 36.6412698,9.13408521 36.6412698,9.13408521 C36.6412698,9.18045113 36.5952381,9.18045113 36.5952381,9.22681704 C36.5952381,9.27318296 36.5952381,9.27318296 36.5952381,9.31954887 C36.5952381,9.36591479 36.5952381,9.36591479 36.5952381,9.4122807 C36.5952381,9.4122807 36.5952381,9.4122807 36.5952381,9.4122807 L36.5952381,18.7781955 C36.5952381,18.8245614 36.5952381,18.8245614 36.5952381,18.8245614 C36.5952381,18.8245614 36.5952381,18.8709273 36.5952381,18.8709273 C36.5952381,18.8709273 36.5952381,18.8709273 36.5952381,18.8709273 C36.5952381,18.8709273 36.5952381,18.9172932 36.6412698,18.9172932 C36.6412698,18.9636591 36.6873016,18.9636591 36.6873016,19.0100251 C36.6873016,19.0100251 36.7333333,19.056391 36.7333333,19.056391 C36.7793651,19.1027569 36.7793651,19.1027569 36.8253968,19.1027569 C36.8253968,19.1027569 36.8714286,19.1027569 36.8714286,19.1027569 C36.9174603,19.1027569 36.9634921,19.1491228 37.0095238,19.1491228 C37.0555556,19.1491228 37.1015873,19.1491228 37.147619,19.1491228 L39.8634921,18.2681704 C40.0936508,18.1754386 40.231746,17.943609 40.1396825,17.7117794 C40.047619,17.5726817 39.7714286,17.433584 39.5412698,17.5263158 Z" id="Shape"></path>
                </g>
            </g>
            <g id="Main-branch-container" transform="translate(177.000000, 247.000000)">
                <rect id="Rectangle" fill="#FFFFFF" x="0" y="0" width="58" height="37"></rect>
                <g id="noun_927911_cc" transform="translate(8.000000, 3.000000)" fill-rule="nonzero" fill="#52A6FF">
                    <path d="M42.9054945,6.42857143 C42.9054945,6.42857143 42.9054945,6.38095238 42.9054945,6.38095238 C42.9054945,6.38095238 42.9054945,6.38095238 42.9054945,6.38095238 C42.9054945,6.38095238 42.9054945,6.33333333 42.9054945,6.33333333 C42.9054945,6.33333333 42.9054945,6.33333333 42.9054945,6.33333333 C42.9054945,6.33333333 42.9054945,6.33333333 42.9054945,6.33333333 C42.9054945,6.28571429 42.8582418,6.28571429 42.8582418,6.23809524 C42.8582418,6.23809524 42.8582418,6.23809524 42.8582418,6.23809524 C42.8582418,6.23809524 42.8582418,6.19047619 42.810989,6.19047619 C42.810989,6.19047619 42.810989,6.19047619 42.810989,6.19047619 C42.810989,6.19047619 42.7637363,6.14285714 42.7637363,6.14285714 C42.7637363,6.14285714 42.7164835,6.0952381 42.7164835,6.0952381 C42.7164835,6.0952381 42.7164835,6.0952381 42.7164835,6.0952381 L31.1395604,0.380952381 C31.1395604,0.380952381 31.0923077,0.380952381 31.0923077,0.380952381 C31.0450549,0.380952381 31.0450549,0.333333333 30.9978022,0.333333333 C30.9505495,0.333333333 30.9032967,0.333333333 30.9032967,0.333333333 C30.9032967,0.333333333 30.856044,0.333333333 30.856044,0.333333333 L30.856044,0.333333333 C30.856044,0.333333333 30.856044,0.333333333 30.856044,0.333333333 L0.425274725,9.95238095 C0.425274725,9.95238095 0.425274725,9.95238095 0.425274725,9.95238095 C0.425274725,9.95238095 0.425274725,9.95238095 0.425274725,9.95238095 C0.378021978,10 0.330769231,10 0.330769231,10 C0.330769231,10 0.330769231,10 0.330769231,10 C0.330769231,10 0.283516484,10 0.283516484,10.047619 C0.283516484,10.047619 0.283516484,10.047619 0.283516484,10.047619 C0.283516484,10.047619 0.236263736,10.0952381 0.236263736,10.0952381 C0.236263736,10.0952381 0.189010989,10.1428571 0.189010989,10.1428571 C0.189010989,10.1428571 0.189010989,10.1428571 0.189010989,10.1428571 C0.189010989,10.1428571 0.189010989,10.1428571 0.189010989,10.1428571 C0.189010989,10.1428571 0.189010989,10.1904762 0.189010989,10.2380952 C0.189010989,10.2857143 0.189010989,10.2857143 0.189010989,10.3333333 C0.189010989,10.3333333 0.189010989,10.3333333 0.189010989,10.3333333 C0.189010989,10.3333333 0.189010989,10.3333333 0.189010989,10.3333333 L0.189010989,23.4761905 C0.189010989,23.4761905 0.189010989,23.5238095 0.189010989,23.5238095 C0.189010989,23.5714286 0.189010989,23.5714286 0.189010989,23.6190476 C0.189010989,23.6666667 0.236263736,23.6666667 0.236263736,23.7142857 C0.236263736,23.7619048 0.283516484,23.7619048 0.283516484,23.8095238 C0.283516484,23.8571429 0.330769231,23.8571429 0.378021978,23.8571429 C0.378021978,23.8571429 0.425274725,23.9047619 0.425274725,23.9047619 L11.9549451,29.5714286 C11.9549451,29.5714286 11.9549451,29.5714286 11.9549451,29.5714286 C11.9549451,29.5714286 11.9549451,29.5714286 12.0021978,29.5714286 C12.0494505,29.5714286 12.0967033,29.6190476 12.143956,29.6190476 C12.143956,29.6190476 12.143956,29.6190476 12.143956,29.6190476 C12.1912088,29.6190476 12.2384615,29.6190476 12.2384615,29.6190476 C12.2384615,29.6190476 12.2384615,29.6190476 12.2384615,29.6190476 L42.621978,20 C42.621978,20 42.621978,20 42.621978,20 C42.6692308,20 42.6692308,19.952381 42.7164835,19.952381 C42.7637363,19.952381 42.7637363,19.9047619 42.7637363,19.9047619 C42.7637363,19.9047619 42.810989,19.8571429 42.810989,19.8571429 C42.810989,19.8095238 42.8582418,19.8095238 42.8582418,19.7619048 C42.8582418,19.7142857 42.8582418,19.7142857 42.8582418,19.6666667 C42.8582418,19.6190476 42.8582418,19.6190476 42.8582418,19.5714286 C42.8582418,19.5714286 42.8582418,19.5714286 42.8582418,19.5714286 L42.8582418,6.42857143 L42.9054945,6.42857143 Z M30.9032967,1.28571429 L41.2043956,6.33333333 L12.0967033,15.5714286 L1.7956044,10.4761905 L30.9032967,1.28571429 Z M0.992307692,11.1428571 L11.5769231,16.3333333 L11.5769231,28.4761905 L0.992307692,23.2857143 L0.992307692,11.1428571 Z M12.521978,16.3809524 L41.9604396,7.04761905 L41.9604396,19.2380952 L12.521978,28.5714286 L12.521978,16.3809524 Z" id="Shape"></path>
                    <path d="M16.8692308,16.3809524 C16.821978,16.3809524 16.821978,16.3809524 16.8692308,16.3809524 C16.8692308,16.3333333 16.821978,16.2857143 16.821978,16.2857143 C16.821978,16.2380952 16.7747253,16.2380952 16.7747253,16.2380952 C16.7747253,16.2380952 16.7274725,16.1904762 16.7274725,16.1904762 C16.6802198,16.1904762 16.6802198,16.1428571 16.632967,16.1428571 C16.632967,16.1428571 16.5857143,16.1428571 16.5384615,16.1428571 C16.4912088,16.1428571 16.4912088,16.1428571 16.443956,16.1428571 C16.443956,16.1428571 16.443956,16.1428571 16.443956,16.1428571 C16.3967033,16.1428571 16.3967033,16.1428571 16.3967033,16.1428571 C16.3967033,16.1428571 16.3494505,16.1428571 16.3494505,16.1428571 L13.5615385,17.047619 C13.3252747,17.1428571 13.1835165,17.3809524 13.278022,17.6190476 C13.3252747,17.8095238 13.5142857,17.952381 13.7032967,17.952381 C13.7505495,17.952381 13.7978022,17.952381 13.8450549,17.952381 L16.0186813,17.2380952 L16.0186813,25.8095238 L13.5615385,26.5714286 C13.3252747,26.6666667 13.1835165,26.9047619 13.278022,27.1428571 C13.3252747,27.3333333 13.5142857,27.4761905 13.7032967,27.4761905 C13.7505495,27.4761905 13.7978022,27.4761905 13.8450549,27.4761905 L16.632967,26.5714286 C16.632967,26.5714286 16.632967,26.5714286 16.632967,26.5714286 C16.6802198,26.5714286 16.6802198,26.5238095 16.7274725,26.5238095 C16.7747253,26.5238095 16.7747253,26.4761905 16.7747253,26.4761905 C16.7747253,26.4761905 16.821978,26.4285714 16.821978,26.4285714 C16.821978,26.3809524 16.8692308,26.3809524 16.8692308,26.3333333 C16.8692308,26.2857143 16.8692308,26.2857143 16.8692308,26.2380952 C16.8692308,26.1904762 16.8692308,26.1904762 16.8692308,26.1428571 C16.8692308,26.1428571 16.8692308,26.1428571 16.8692308,26.1428571 L16.8692308,16.6190476 C16.8692308,16.5714286 16.8692308,16.5714286 16.8692308,16.5714286 C16.8692308,16.4285714 16.8692308,16.4285714 16.8692308,16.3809524 Z" id="Shape"></path>
                    <path d="M19.4681319,15.047619 C19.2318681,15.047619 18.9956044,15.2380952 18.9956044,15.5238095 L18.9956044,25.047619 C18.9956044,25.2857143 19.1846154,25.5238095 19.4681319,25.5238095 C19.7043956,25.5238095 19.9406593,25.3333333 19.9406593,25.047619 L19.9406593,15.5238095 C19.9406593,15.2380952 19.7516484,15.047619 19.4681319,15.047619 Z" id="Shape"></path>
                    <path d="M22.5395604,14.0952381 C22.3032967,14.0952381 22.067033,14.2857143 22.067033,14.5714286 L22.067033,24.0952381 C22.067033,24.3333333 22.256044,24.5714286 22.5395604,24.5714286 C22.8230769,24.5714286 23.0120879,24.3809524 23.0120879,24.0952381 L23.0120879,14.5714286 C23.0120879,14.2857143 22.8230769,14.0952381 22.5395604,14.0952381 Z" id="Shape"></path>
                    <path d="M25.6582418,13.0952381 C25.421978,13.0952381 25.1857143,13.2857143 25.1857143,13.5714286 L25.1857143,23.0952381 C25.1857143,23.3333333 25.3747253,23.5714286 25.6582418,23.5714286 C25.8945055,23.5714286 26.1307692,23.3809524 26.1307692,23.0952381 L26.1307692,13.5714286 C26.0835165,13.3333333 25.8945055,13.0952381 25.6582418,13.0952381 Z" id="Shape"></path>
                    <path d="M3.44945055,13.1904762 C3.21318681,13.1904762 2.97692308,13.3809524 2.97692308,13.6666667 L2.97692308,23.2380952 C2.97692308,23.4761905 3.16593407,23.7142857 3.44945055,23.7142857 C3.68571429,23.7142857 3.92197802,23.5238095 3.92197802,23.2380952 L3.92197802,13.6666667 C3.87472527,13.4285714 3.68571429,13.1904762 3.44945055,13.1904762 Z" id="Shape"></path>
                    <path d="M6.33186813,14.6190476 C6.0956044,14.6190476 5.85934066,14.8095238 5.85934066,15.0952381 L5.85934066,24.6666667 C5.85934066,24.9047619 6.04835165,25.1428571 6.33186813,25.1428571 C6.61538462,25.1428571 6.8043956,24.952381 6.8043956,24.6666667 L6.8043956,15.0952381 C6.75714286,14.8095238 6.56813187,14.6190476 6.33186813,14.6190476 Z" id="Shape"></path>
                    <path d="M9.21428571,15.952381 C8.97802198,15.952381 8.74175824,16.1428571 8.74175824,16.4285714 L8.74175824,26.0952381 C8.74175824,26.3333333 8.93076923,26.5714286 9.21428571,26.5714286 C9.45054945,26.5714286 9.68681319,26.3809524 9.68681319,26.0952381 L9.68681319,16.3809524 C9.63956044,16.1428571 9.45054945,15.952381 9.21428571,15.952381 Z" id="Shape"></path>
                    <path d="M28.7296703,12.1904762 C28.4934066,12.1904762 28.2571429,12.3809524 28.2571429,12.6666667 L28.2571429,22.1428571 C28.2571429,22.3809524 28.4461538,22.6190476 28.7296703,22.6190476 C28.9659341,22.6190476 29.2021978,22.4285714 29.2021978,22.1428571 L29.2021978,12.6666667 C29.1549451,12.4285714 28.9659341,12.1904762 28.7296703,12.1904762 Z" id="Shape"></path>
                    <path d="M31.8010989,11.1428571 C31.5648352,11.1428571 31.3285714,11.3333333 31.3285714,11.6190476 L31.3285714,21.1428571 C31.3285714,21.3809524 31.5175824,21.6190476 31.8010989,21.6190476 C32.0373626,21.6190476 32.2736264,21.4285714 32.2736264,21.1428571 L32.2736264,11.6190476 C32.2263736,11.3809524 32.0373626,11.1428571 31.8010989,11.1428571 Z" id="Shape"></path>
                    <path d="M34.8725275,10.1904762 C34.6362637,10.1904762 34.4,10.3809524 34.4,10.6666667 L34.4,20.1904762 C34.4,20.4285714 34.589011,20.6666667 34.8725275,20.6666667 C35.1087912,20.6666667 35.3450549,20.4761905 35.3450549,20.1904762 L35.3450549,10.6666667 C35.3450549,10.3809524 35.1087912,10.1904762 34.8725275,10.1904762 Z" id="Shape"></path>
                    <path d="M40.5901099,18 L38.4164835,18.7142857 L38.4164835,10 L40.8736264,9.23809524 C41.1098901,9.14285714 41.2516484,8.9047619 41.1571429,8.66666667 C41.0626374,8.42857143 40.8263736,8.28571429 40.5901099,8.38095238 L37.8021978,9.23809524 C37.8021978,9.23809524 37.8021978,9.23809524 37.8021978,9.23809524 C37.7549451,9.23809524 37.7549451,9.28571429 37.7076923,9.28571429 C37.7076923,9.28571429 37.6604396,9.33333333 37.6604396,9.33333333 C37.6604396,9.33333333 37.6131868,9.38095238 37.6131868,9.38095238 C37.6131868,9.42857143 37.5659341,9.42857143 37.5659341,9.47619048 C37.5659341,9.52380952 37.5659341,9.52380952 37.5659341,9.57142857 C37.5659341,9.61904762 37.5659341,9.61904762 37.5659341,9.66666667 C37.5659341,9.66666667 37.5659341,9.66666667 37.5659341,9.66666667 L37.5659341,19.2857143 C37.5659341,19.3333333 37.5659341,19.3333333 37.5659341,19.3333333 C37.5659341,19.3333333 37.5659341,19.3809524 37.5659341,19.3809524 C37.5659341,19.3809524 37.5659341,19.3809524 37.5659341,19.3809524 C37.5659341,19.3809524 37.5659341,19.4285714 37.6131868,19.4285714 C37.6131868,19.4761905 37.6604396,19.4761905 37.6604396,19.5238095 C37.6604396,19.5238095 37.7076923,19.5714286 37.7076923,19.5714286 C37.7549451,19.6190476 37.7549451,19.6190476 37.8021978,19.6190476 C37.8021978,19.6190476 37.8494505,19.6190476 37.8494505,19.6190476 C37.8967033,19.6190476 37.943956,19.6666667 37.9912088,19.6666667 C38.0384615,19.6666667 38.0857143,19.6666667 38.132967,19.6666667 L40.9208791,18.7619048 C41.1571429,18.6666667 41.2989011,18.4285714 41.2043956,18.1904762 C41.1098901,18.047619 40.8263736,17.9047619 40.5901099,18 Z" id="Shape"></path>
                </g>
            </g>
            <g id="Main-branch-container" transform="translate(381.000000, 247.000000)">
                <rect id="Rectangle" fill="#FFFFFF" x="0" y="0" width="58" height="37"></rect>
                <g id="noun_927911_cc" transform="translate(8.000000, 3.000000)" fill-rule="nonzero" fill="#52A6FF">
                    <path d="M42.9054945,6.42857143 C42.9054945,6.42857143 42.9054945,6.38095238 42.9054945,6.38095238 C42.9054945,6.38095238 42.9054945,6.38095238 42.9054945,6.38095238 C42.9054945,6.38095238 42.9054945,6.33333333 42.9054945,6.33333333 C42.9054945,6.33333333 42.9054945,6.33333333 42.9054945,6.33333333 C42.9054945,6.33333333 42.9054945,6.33333333 42.9054945,6.33333333 C42.9054945,6.28571429 42.8582418,6.28571429 42.8582418,6.23809524 C42.8582418,6.23809524 42.8582418,6.23809524 42.8582418,6.23809524 C42.8582418,6.23809524 42.8582418,6.19047619 42.810989,6.19047619 C42.810989,6.19047619 42.810989,6.19047619 42.810989,6.19047619 C42.810989,6.19047619 42.7637363,6.14285714 42.7637363,6.14285714 C42.7637363,6.14285714 42.7164835,6.0952381 42.7164835,6.0952381 C42.7164835,6.0952381 42.7164835,6.0952381 42.7164835,6.0952381 L31.1395604,0.380952381 C31.1395604,0.380952381 31.0923077,0.380952381 31.0923077,0.380952381 C31.0450549,0.380952381 31.0450549,0.333333333 30.9978022,0.333333333 C30.9505495,0.333333333 30.9032967,0.333333333 30.9032967,0.333333333 C30.9032967,0.333333333 30.856044,0.333333333 30.856044,0.333333333 L30.856044,0.333333333 C30.856044,0.333333333 30.856044,0.333333333 30.856044,0.333333333 L0.425274725,9.95238095 C0.425274725,9.95238095 0.425274725,9.95238095 0.425274725,9.95238095 C0.425274725,9.95238095 0.425274725,9.95238095 0.425274725,9.95238095 C0.378021978,10 0.330769231,10 0.330769231,10 C0.330769231,10 0.330769231,10 0.330769231,10 C0.330769231,10 0.283516484,10 0.283516484,10.047619 C0.283516484,10.047619 0.283516484,10.047619 0.283516484,10.047619 C0.283516484,10.047619 0.236263736,10.0952381 0.236263736,10.0952381 C0.236263736,10.0952381 0.189010989,10.1428571 0.189010989,10.1428571 C0.189010989,10.1428571 0.189010989,10.1428571 0.189010989,10.1428571 C0.189010989,10.1428571 0.189010989,10.1428571 0.189010989,10.1428571 C0.189010989,10.1428571 0.189010989,10.1904762 0.189010989,10.2380952 C0.189010989,10.2857143 0.189010989,10.2857143 0.189010989,10.3333333 C0.189010989,10.3333333 0.189010989,10.3333333 0.189010989,10.3333333 C0.189010989,10.3333333 0.189010989,10.3333333 0.189010989,10.3333333 L0.189010989,23.4761905 C0.189010989,23.4761905 0.189010989,23.5238095 0.189010989,23.5238095 C0.189010989,23.5714286 0.189010989,23.5714286 0.189010989,23.6190476 C0.189010989,23.6666667 0.236263736,23.6666667 0.236263736,23.7142857 C0.236263736,23.7619048 0.283516484,23.7619048 0.283516484,23.8095238 C0.283516484,23.8571429 0.330769231,23.8571429 0.378021978,23.8571429 C0.378021978,23.8571429 0.425274725,23.9047619 0.425274725,23.9047619 L11.9549451,29.5714286 C11.9549451,29.5714286 11.9549451,29.5714286 11.9549451,29.5714286 C11.9549451,29.5714286 11.9549451,29.5714286 12.0021978,29.5714286 C12.0494505,29.5714286 12.0967033,29.6190476 12.143956,29.6190476 C12.143956,29.6190476 12.143956,29.6190476 12.143956,29.6190476 C12.1912088,29.6190476 12.2384615,29.6190476 12.2384615,29.6190476 C12.2384615,29.6190476 12.2384615,29.6190476 12.2384615,29.6190476 L42.621978,20 C42.621978,20 42.621978,20 42.621978,20 C42.6692308,20 42.6692308,19.952381 42.7164835,19.952381 C42.7637363,19.952381 42.7637363,19.9047619 42.7637363,19.9047619 C42.7637363,19.9047619 42.810989,19.8571429 42.810989,19.8571429 C42.810989,19.8095238 42.8582418,19.8095238 42.8582418,19.7619048 C42.8582418,19.7142857 42.8582418,19.7142857 42.8582418,19.6666667 C42.8582418,19.6190476 42.8582418,19.6190476 42.8582418,19.5714286 C42.8582418,19.5714286 42.8582418,19.5714286 42.8582418,19.5714286 L42.8582418,6.42857143 L42.9054945,6.42857143 Z M30.9032967,1.28571429 L41.2043956,6.33333333 L12.0967033,15.5714286 L1.7956044,10.4761905 L30.9032967,1.28571429 Z M0.992307692,11.1428571 L11.5769231,16.3333333 L11.5769231,28.4761905 L0.992307692,23.2857143 L0.992307692,11.1428571 Z M12.521978,16.3809524 L41.9604396,7.04761905 L41.9604396,19.2380952 L12.521978,28.5714286 L12.521978,16.3809524 Z" id="Shape"></path>
                    <path d="M16.8692308,16.3809524 C16.821978,16.3809524 16.821978,16.3809524 16.8692308,16.3809524 C16.8692308,16.3333333 16.821978,16.2857143 16.821978,16.2857143 C16.821978,16.2380952 16.7747253,16.2380952 16.7747253,16.2380952 C16.7747253,16.2380952 16.7274725,16.1904762 16.7274725,16.1904762 C16.6802198,16.1904762 16.6802198,16.1428571 16.632967,16.1428571 C16.632967,16.1428571 16.5857143,16.1428571 16.5384615,16.1428571 C16.4912088,16.1428571 16.4912088,16.1428571 16.443956,16.1428571 C16.443956,16.1428571 16.443956,16.1428571 16.443956,16.1428571 C16.3967033,16.1428571 16.3967033,16.1428571 16.3967033,16.1428571 C16.3967033,16.1428571 16.3494505,16.1428571 16.3494505,16.1428571 L13.5615385,17.047619 C13.3252747,17.1428571 13.1835165,17.3809524 13.278022,17.6190476 C13.3252747,17.8095238 13.5142857,17.952381 13.7032967,17.952381 C13.7505495,17.952381 13.7978022,17.952381 13.8450549,17.952381 L16.0186813,17.2380952 L16.0186813,25.8095238 L13.5615385,26.5714286 C13.3252747,26.6666667 13.1835165,26.9047619 13.278022,27.1428571 C13.3252747,27.3333333 13.5142857,27.4761905 13.7032967,27.4761905 C13.7505495,27.4761905 13.7978022,27.4761905 13.8450549,27.4761905 L16.632967,26.5714286 C16.632967,26.5714286 16.632967,26.5714286 16.632967,26.5714286 C16.6802198,26.5714286 16.6802198,26.5238095 16.7274725,26.5238095 C16.7747253,26.5238095 16.7747253,26.4761905 16.7747253,26.4761905 C16.7747253,26.4761905 16.821978,26.4285714 16.821978,26.4285714 C16.821978,26.3809524 16.8692308,26.3809524 16.8692308,26.3333333 C16.8692308,26.2857143 16.8692308,26.2857143 16.8692308,26.2380952 C16.8692308,26.1904762 16.8692308,26.1904762 16.8692308,26.1428571 C16.8692308,26.1428571 16.8692308,26.1428571 16.8692308,26.1428571 L16.8692308,16.6190476 C16.8692308,16.5714286 16.8692308,16.5714286 16.8692308,16.5714286 C16.8692308,16.4285714 16.8692308,16.4285714 16.8692308,16.3809524 Z" id="Shape"></path>
                    <path d="M19.4681319,15.047619 C19.2318681,15.047619 18.9956044,15.2380952 18.9956044,15.5238095 L18.9956044,25.047619 C18.9956044,25.2857143 19.1846154,25.5238095 19.4681319,25.5238095 C19.7043956,25.5238095 19.9406593,25.3333333 19.9406593,25.047619 L19.9406593,15.5238095 C19.9406593,15.2380952 19.7516484,15.047619 19.4681319,15.047619 Z" id="Shape"></path>
                    <path d="M22.5395604,14.0952381 C22.3032967,14.0952381 22.067033,14.2857143 22.067033,14.5714286 L22.067033,24.0952381 C22.067033,24.3333333 22.256044,24.5714286 22.5395604,24.5714286 C22.8230769,24.5714286 23.0120879,24.3809524 23.0120879,24.0952381 L23.0120879,14.5714286 C23.0120879,14.2857143 22.8230769,14.0952381 22.5395604,14.0952381 Z" id="Shape"></path>
                    <path d="M25.6582418,13.0952381 C25.421978,13.0952381 25.1857143,13.2857143 25.1857143,13.5714286 L25.1857143,23.0952381 C25.1857143,23.3333333 25.3747253,23.5714286 25.6582418,23.5714286 C25.8945055,23.5714286 26.1307692,23.3809524 26.1307692,23.0952381 L26.1307692,13.5714286 C26.0835165,13.3333333 25.8945055,13.0952381 25.6582418,13.0952381 Z" id="Shape"></path>
                    <path d="M3.44945055,13.1904762 C3.21318681,13.1904762 2.97692308,13.3809524 2.97692308,13.6666667 L2.97692308,23.2380952 C2.97692308,23.4761905 3.16593407,23.7142857 3.44945055,23.7142857 C3.68571429,23.7142857 3.92197802,23.5238095 3.92197802,23.2380952 L3.92197802,13.6666667 C3.87472527,13.4285714 3.68571429,13.1904762 3.44945055,13.1904762 Z" id="Shape"></path>
                    <path d="M6.33186813,14.6190476 C6.0956044,14.6190476 5.85934066,14.8095238 5.85934066,15.0952381 L5.85934066,24.6666667 C5.85934066,24.9047619 6.04835165,25.1428571 6.33186813,25.1428571 C6.61538462,25.1428571 6.8043956,24.952381 6.8043956,24.6666667 L6.8043956,15.0952381 C6.75714286,14.8095238 6.56813187,14.6190476 6.33186813,14.6190476 Z" id="Shape"></path>
                    <path d="M9.21428571,15.952381 C8.97802198,15.952381 8.74175824,16.1428571 8.74175824,16.4285714 L8.74175824,26.0952381 C8.74175824,26.3333333 8.93076923,26.5714286 9.21428571,26.5714286 C9.45054945,26.5714286 9.68681319,26.3809524 9.68681319,26.0952381 L9.68681319,16.3809524 C9.63956044,16.1428571 9.45054945,15.952381 9.21428571,15.952381 Z" id="Shape"></path>
                    <path d="M28.7296703,12.1904762 C28.4934066,12.1904762 28.2571429,12.3809524 28.2571429,12.6666667 L28.2571429,22.1428571 C28.2571429,22.3809524 28.4461538,22.6190476 28.7296703,22.6190476 C28.9659341,22.6190476 29.2021978,22.4285714 29.2021978,22.1428571 L29.2021978,12.6666667 C29.1549451,12.4285714 28.9659341,12.1904762 28.7296703,12.1904762 Z" id="Shape"></path>
                    <path d="M31.8010989,11.1428571 C31.5648352,11.1428571 31.3285714,11.3333333 31.3285714,11.6190476 L31.3285714,21.1428571 C31.3285714,21.3809524 31.5175824,21.6190476 31.8010989,21.6190476 C32.0373626,21.6190476 32.2736264,21.4285714 32.2736264,21.1428571 L32.2736264,11.6190476 C32.2263736,11.3809524 32.0373626,11.1428571 31.8010989,11.1428571 Z" id="Shape"></path>
                    <path d="M34.8725275,10.1904762 C34.6362637,10.1904762 34.4,10.3809524 34.4,10.6666667 L34.4,20.1904762 C34.4,20.4285714 34.589011,20.6666667 34.8725275,20.6666667 C35.1087912,20.6666667 35.3450549,20.4761905 35.3450549,20.1904762 L35.3450549,10.6666667 C35.3450549,10.3809524 35.1087912,10.1904762 34.8725275,10.1904762 Z" id="Shape"></path>
                    <path d="M40.5901099,18 L38.4164835,18.7142857 L38.4164835,10 L40.8736264,9.23809524 C41.1098901,9.14285714 41.2516484,8.9047619 41.1571429,8.66666667 C41.0626374,8.42857143 40.8263736,8.28571429 40.5901099,8.38095238 L37.8021978,9.23809524 C37.8021978,9.23809524 37.8021978,9.23809524 37.8021978,9.23809524 C37.7549451,9.23809524 37.7549451,9.28571429 37.7076923,9.28571429 C37.7076923,9.28571429 37.6604396,9.33333333 37.6604396,9.33333333 C37.6604396,9.33333333 37.6131868,9.38095238 37.6131868,9.38095238 C37.6131868,9.42857143 37.5659341,9.42857143 37.5659341,9.47619048 C37.5659341,9.52380952 37.5659341,9.52380952 37.5659341,9.57142857 C37.5659341,9.61904762 37.5659341,9.61904762 37.5659341,9.66666667 C37.5659341,9.66666667 37.5659341,9.66666667 37.5659341,9.66666667 L37.5659341,19.2857143 C37.5659341,19.3333333 37.5659341,19.3333333 37.5659341,19.3333333 C37.5659341,19.3333333 37.5659341,19.3809524 37.5659341,19.3809524 C37.5659341,19.3809524 37.5659341,19.3809524 37.5659341,19.3809524 C37.5659341,19.3809524 37.5659341,19.4285714 37.6131868,19.4285714 C37.6131868,19.4761905 37.6604396,19.4761905 37.6604396,19.5238095 C37.6604396,19.5238095 37.7076923,19.5714286 37.7076923,19.5714286 C37.7549451,19.6190476 37.7549451,19.6190476 37.8021978,19.6190476 C37.8021978,19.6190476 37.8494505,19.6190476 37.8494505,19.6190476 C37.8967033,19.6190476 37.943956,19.6666667 37.9912088,19.6666667 C38.0384615,19.6666667 38.0857143,19.6666667 38.132967,19.6666667 L40.9208791,18.7619048 C41.1571429,18.6666667 41.2989011,18.4285714 41.2043956,18.1904762 C41.1098901,18.047619 40.8263736,17.9047619 40.5901099,18 Z" id="Shape"></path>
                </g>
            </g>
            <g id="Main-branch-container" transform="translate(527.000000, 247.000000)">
                <rect id="Rectangle" fill="#FFFFFF" x="0" y="0" width="58" height="37"></rect>
                <g id="noun_927911_cc" transform="translate(8.000000, 3.000000)" fill-rule="nonzero" fill="#0FCA2B">
                    <path d="M42.9054945,6.42857143 C42.9054945,6.42857143 42.9054945,6.38095238 42.9054945,6.38095238 C42.9054945,6.38095238 42.9054945,6.38095238 42.9054945,6.38095238 C42.9054945,6.38095238 42.9054945,6.33333333 42.9054945,6.33333333 C42.9054945,6.33333333 42.9054945,6.33333333 42.9054945,6.33333333 C42.9054945,6.33333333 42.9054945,6.33333333 42.9054945,6.33333333 C42.9054945,6.28571429 42.8582418,6.28571429 42.8582418,6.23809524 C42.8582418,6.23809524 42.8582418,6.23809524 42.8582418,6.23809524 C42.8582418,6.23809524 42.8582418,6.19047619 42.810989,6.19047619 C42.810989,6.19047619 42.810989,6.19047619 42.810989,6.19047619 C42.810989,6.19047619 42.7637363,6.14285714 42.7637363,6.14285714 C42.7637363,6.14285714 42.7164835,6.0952381 42.7164835,6.0952381 C42.7164835,6.0952381 42.7164835,6.0952381 42.7164835,6.0952381 L31.1395604,0.380952381 C31.1395604,0.380952381 31.0923077,0.380952381 31.0923077,0.380952381 C31.0450549,0.380952381 31.0450549,0.333333333 30.9978022,0.333333333 C30.9505495,0.333333333 30.9032967,0.333333333 30.9032967,0.333333333 C30.9032967,0.333333333 30.856044,0.333333333 30.856044,0.333333333 L30.856044,0.333333333 C30.856044,0.333333333 30.856044,0.333333333 30.856044,0.333333333 L0.425274725,9.95238095 C0.425274725,9.95238095 0.425274725,9.95238095 0.425274725,9.95238095 C0.425274725,9.95238095 0.425274725,9.95238095 0.425274725,9.95238095 C0.378021978,10 0.330769231,10 0.330769231,10 C0.330769231,10 0.330769231,10 0.330769231,10 C0.330769231,10 0.283516484,10 0.283516484,10.047619 C0.283516484,10.047619 0.283516484,10.047619 0.283516484,10.047619 C0.283516484,10.047619 0.236263736,10.0952381 0.236263736,10.0952381 C0.236263736,10.0952381 0.189010989,10.1428571 0.189010989,10.1428571 C0.189010989,10.1428571 0.189010989,10.1428571 0.189010989,10.1428571 C0.189010989,10.1428571 0.189010989,10.1428571 0.189010989,10.1428571 C0.189010989,10.1428571 0.189010989,10.1904762 0.189010989,10.2380952 C0.189010989,10.2857143 0.189010989,10.2857143 0.189010989,10.3333333 C0.189010989,10.3333333 0.189010989,10.3333333 0.189010989,10.3333333 C0.189010989,10.3333333 0.189010989,10.3333333 0.189010989,10.3333333 L0.189010989,23.4761905 C0.189010989,23.4761905 0.189010989,23.5238095 0.189010989,23.5238095 C0.189010989,23.5714286 0.189010989,23.5714286 0.189010989,23.6190476 C0.189010989,23.6666667 0.236263736,23.6666667 0.236263736,23.7142857 C0.236263736,23.7619048 0.283516484,23.7619048 0.283516484,23.8095238 C0.283516484,23.8571429 0.330769231,23.8571429 0.378021978,23.8571429 C0.378021978,23.8571429 0.425274725,23.9047619 0.425274725,23.9047619 L11.9549451,29.5714286 C11.9549451,29.5714286 11.9549451,29.5714286 11.9549451,29.5714286 C11.9549451,29.5714286 11.9549451,29.5714286 12.0021978,29.5714286 C12.0494505,29.5714286 12.0967033,29.6190476 12.143956,29.6190476 C12.143956,29.6190476 12.143956,29.6190476 12.143956,29.6190476 C12.1912088,29.6190476 12.2384615,29.6190476 12.2384615,29.6190476 C12.2384615,29.6190476 12.2384615,29.6190476 12.2384615,29.6190476 L42.621978,20 C42.621978,20 42.621978,20 42.621978,20 C42.6692308,20 42.6692308,19.952381 42.7164835,19.952381 C42.7637363,19.952381 42.7637363,19.9047619 42.7637363,19.9047619 C42.7637363,19.9047619 42.810989,19.8571429 42.810989,19.8571429 C42.810989,19.8095238 42.8582418,19.8095238 42.8582418,19.7619048 C42.8582418,19.7142857 42.8582418,19.7142857 42.8582418,19.6666667 C42.8582418,19.6190476 42.8582418,19.6190476 42.8582418,19.5714286 C42.8582418,19.5714286 42.8582418,19.5714286 42.8582418,19.5714286 L42.8582418,6.42857143 L42.9054945,6.42857143 Z M30.9032967,1.28571429 L41.2043956,6.33333333 L12.0967033,15.5714286 L1.7956044,10.4761905 L30.9032967,1.28571429 Z M0.992307692,11.1428571 L11.5769231,16.3333333 L11.5769231,28.4761905 L0.992307692,23.2857143 L0.992307692,11.1428571 Z M12.521978,16.3809524 L41.9604396,7.04761905 L41.9604396,19.2380952 L12.521978,28.5714286 L12.521978,16.3809524 Z" id="Shape"></path>
                    <path d="M16.8692308,16.3809524 C16.821978,16.3809524 16.821978,16.3809524 16.8692308,16.3809524 C16.8692308,16.3333333 16.821978,16.2857143 16.821978,16.2857143 C16.821978,16.2380952 16.7747253,16.2380952 16.7747253,16.2380952 C16.7747253,16.2380952 16.7274725,16.1904762 16.7274725,16.1904762 C16.6802198,16.1904762 16.6802198,16.1428571 16.632967,16.1428571 C16.632967,16.1428571 16.5857143,16.1428571 16.5384615,16.1428571 C16.4912088,16.1428571 16.4912088,16.1428571 16.443956,16.1428571 C16.443956,16.1428571 16.443956,16.1428571 16.443956,16.1428571 C16.3967033,16.1428571 16.3967033,16.1428571 16.3967033,16.1428571 C16.3967033,16.1428571 16.3494505,16.1428571 16.3494505,16.1428571 L13.5615385,17.047619 C13.3252747,17.1428571 13.1835165,17.3809524 13.278022,17.6190476 C13.3252747,17.8095238 13.5142857,17.952381 13.7032967,17.952381 C13.7505495,17.952381 13.7978022,17.952381 13.8450549,17.952381 L16.0186813,17.2380952 L16.0186813,25.8095238 L13.5615385,26.5714286 C13.3252747,26.6666667 13.1835165,26.9047619 13.278022,27.1428571 C13.3252747,27.3333333 13.5142857,27.4761905 13.7032967,27.4761905 C13.7505495,27.4761905 13.7978022,27.4761905 13.8450549,27.4761905 L16.632967,26.5714286 C16.632967,26.5714286 16.632967,26.5714286 16.632967,26.5714286 C16.6802198,26.5714286 16.6802198,26.5238095 16.7274725,26.5238095 C16.7747253,26.5238095 16.7747253,26.4761905 16.7747253,26.4761905 C16.7747253,26.4761905 16.821978,26.4285714 16.821978,26.4285714 C16.821978,26.3809524 16.8692308,26.3809524 16.8692308,26.3333333 C16.8692308,26.2857143 16.8692308,26.2857143 16.8692308,26.2380952 C16.8692308,26.1904762 16.8692308,26.1904762 16.8692308,26.1428571 C16.8692308,26.1428571 16.8692308,26.1428571 16.8692308,26.1428571 L16.8692308,16.6190476 C16.8692308,16.5714286 16.8692308,16.5714286 16.8692308,16.5714286 C16.8692308,16.4285714 16.8692308,16.4285714 16.8692308,16.3809524 Z" id="Shape"></path>
                    <path d="M19.4681319,15.047619 C19.2318681,15.047619 18.9956044,15.2380952 18.9956044,15.5238095 L18.9956044,25.047619 C18.9956044,25.2857143 19.1846154,25.5238095 19.4681319,25.5238095 C19.7043956,25.5238095 19.9406593,25.3333333 19.9406593,25.047619 L19.9406593,15.5238095 C19.9406593,15.2380952 19.7516484,15.047619 19.4681319,15.047619 Z" id="Shape"></path>
                    <path d="M22.5395604,14.0952381 C22.3032967,14.0952381 22.067033,14.2857143 22.067033,14.5714286 L22.067033,24.0952381 C22.067033,24.3333333 22.256044,24.5714286 22.5395604,24.5714286 C22.8230769,24.5714286 23.0120879,24.3809524 23.0120879,24.0952381 L23.0120879,14.5714286 C23.0120879,14.2857143 22.8230769,14.0952381 22.5395604,14.0952381 Z" id="Shape"></path>
                    <path d="M25.6582418,13.0952381 C25.421978,13.0952381 25.1857143,13.2857143 25.1857143,13.5714286 L25.1857143,23.0952381 C25.1857143,23.3333333 25.3747253,23.5714286 25.6582418,23.5714286 C25.8945055,23.5714286 26.1307692,23.3809524 26.1307692,23.0952381 L26.1307692,13.5714286 C26.0835165,13.3333333 25.8945055,13.0952381 25.6582418,13.0952381 Z" id="Shape"></path>
                    <path d="M3.44945055,13.1904762 C3.21318681,13.1904762 2.97692308,13.3809524 2.97692308,13.6666667 L2.97692308,23.2380952 C2.97692308,23.4761905 3.16593407,23.7142857 3.44945055,23.7142857 C3.68571429,23.7142857 3.92197802,23.5238095 3.92197802,23.2380952 L3.92197802,13.6666667 C3.87472527,13.4285714 3.68571429,13.1904762 3.44945055,13.1904762 Z" id="Shape"></path>
                    <path d="M6.33186813,14.6190476 C6.0956044,14.6190476 5.85934066,14.8095238 5.85934066,15.0952381 L5.85934066,24.6666667 C5.85934066,24.9047619 6.04835165,25.1428571 6.33186813,25.1428571 C6.61538462,25.1428571 6.8043956,24.952381 6.8043956,24.6666667 L6.8043956,15.0952381 C6.75714286,14.8095238 6.56813187,14.6190476 6.33186813,14.6190476 Z" id="Shape"></path>
                    <path d="M9.21428571,15.952381 C8.97802198,15.952381 8.74175824,16.1428571 8.74175824,16.4285714 L8.74175824,26.0952381 C8.74175824,26.3333333 8.93076923,26.5714286 9.21428571,26.5714286 C9.45054945,26.5714286 9.68681319,26.3809524 9.68681319,26.0952381 L9.68681319,16.3809524 C9.63956044,16.1428571 9.45054945,15.952381 9.21428571,15.952381 Z" id="Shape"></path>
                    <path d="M28.7296703,12.1904762 C28.4934066,12.1904762 28.2571429,12.3809524 28.2571429,12.6666667 L28.2571429,22.1428571 C28.2571429,22.3809524 28.4461538,22.6190476 28.7296703,22.6190476 C28.9659341,22.6190476 29.2021978,22.4285714 29.2021978,22.1428571 L29.2021978,12.6666667 C29.1549451,12.4285714 28.9659341,12.1904762 28.7296703,12.1904762 Z" id="Shape"></path>
                    <path d="M31.8010989,11.1428571 C31.5648352,11.1428571 31.3285714,11.3333333 31.3285714,11.6190476 L31.3285714,21.1428571 C31.3285714,21.3809524 31.5175824,21.6190476 31.8010989,21.6190476 C32.0373626,21.6190476 32.2736264,21.4285714 32.2736264,21.1428571 L32.2736264,11.6190476 C32.2263736,11.3809524 32.0373626,11.1428571 31.8010989,11.1428571 Z" id="Shape"></path>
                    <path d="M34.8725275,10.1904762 C34.6362637,10.1904762 34.4,10.3809524 34.4,10.6666667 L34.4,20.1904762 C34.4,20.4285714 34.589011,20.6666667 34.8725275,20.6666667 C35.1087912,20.6666667 35.3450549,20.4761905 35.3450549,20.1904762 L35.3450549,10.6666667 C35.3450549,10.3809524 35.1087912,10.1904762 34.8725275,10.1904762 Z" id="Shape"></path>
                    <path d="M40.5901099,18 L38.4164835,18.7142857 L38.4164835,10 L40.8736264,9.23809524 C41.1098901,9.14285714 41.2516484,8.9047619 41.1571429,8.66666667 C41.0626374,8.42857143 40.8263736,8.28571429 40.5901099,8.38095238 L37.8021978,9.23809524 C37.8021978,9.23809524 37.8021978,9.23809524 37.8021978,9.23809524 C37.7549451,9.23809524 37.7549451,9.28571429 37.7076923,9.28571429 C37.7076923,9.28571429 37.6604396,9.33333333 37.6604396,9.33333333 C37.6604396,9.33333333 37.6131868,9.38095238 37.6131868,9.38095238 C37.6131868,9.42857143 37.5659341,9.42857143 37.5659341,9.47619048 C37.5659341,9.52380952 37.5659341,9.52380952 37.5659341,9.57142857 C37.5659341,9.61904762 37.5659341,9.61904762 37.5659341,9.66666667 C37.5659341,9.66666667 37.5659341,9.66666667 37.5659341,9.66666667 L37.5659341,19.2857143 C37.5659341,19.3333333 37.5659341,19.3333333 37.5659341,19.3333333 C37.5659341,19.3333333 37.5659341,19.3809524 37.5659341,19.3809524 C37.5659341,19.3809524 37.5659341,19.3809524 37.5659341,19.3809524 C37.5659341,19.3809524 37.5659341,19.4285714 37.6131868,19.4285714 C37.6131868,19.4761905 37.6604396,19.4761905 37.6604396,19.5238095 C37.6604396,19.5238095 37.7076923,19.5714286 37.7076923,19.5714286 C37.7549451,19.6190476 37.7549451,19.6190476 37.8021978,19.6190476 C37.8021978,19.6190476 37.8494505,19.6190476 37.8494505,19.6190476 C37.8967033,19.6190476 37.943956,19.6666667 37.9912088,19.6666667 C38.0384615,19.6666667 38.0857143,19.6666667 38.132967,19.6666667 L40.9208791,18.7619048 C41.1571429,18.6666667 41.2989011,18.4285714 41.2043956,18.1904762 C41.1098901,18.047619 40.8263736,17.9047619 40.5901099,18 Z" id="Shape"></path>
                </g>
            </g>
            <g id="noun_627616_cc" transform="translate(342.000000, 110.000000)" fill-rule="nonzero" fill="#888888">
                <path d="M32.6172673,0.004 L27.276655,0.004 C24.3928349,0.0101678454 21.9375785,2.11424163 21.475493,4.97540457 C21.0134075,7.8365675 22.6804098,10.6132429 25.4142061,11.536 L25.4142061,14.36 C25.4129576,14.4790553 25.4837494,14.5869491 25.5931178,14.6326797 C25.7024862,14.6784103 25.828525,14.6528178 25.911655,14.568 L28.6217571,11.84 L32.6013489,11.84 C35.8541933,11.84 38.4911447,9.18952568 38.4911447,5.92 C38.4911447,2.65047432 35.8541933,4.87197298e-08 32.6013489,0 L32.6172673,0.004 Z M30.2772673,7.068 L29.2823693,8.06 L28.2954305,7.06 L27.3443081,6.096 L28.3392061,5.104 L29.2903285,6.068 L31.566655,3.792 L32.5535938,4.792 L30.2772673,7.068 Z M2.141553,35.296 C2.24224996,35.5261865 2.46842257,35.6751284 2.71859381,35.676 L25.9753285,35.676 C26.2254997,35.6751284 26.4516724,35.5261865 26.5523693,35.296 L28.5222673,30.812 C28.7190539,30.362729 28.7624302,29.8606405 28.6456346,29.384 L26.4886959,20.612 C26.3274837,19.9212346 26.0688467,19.2571831 25.7206346,18.64 C25.2261079,17.7802559 24.5674799,17.0271735 23.7825734,16.424 C22.0985906,15.1755624 20.3373896,14.0359332 18.5096142,13.012 C18.4326547,12.9711246 18.3409717,12.9693457 18.2625,13.0072052 C18.1840283,13.0450648 18.1280626,13.1180786 18.111655,13.204 L16.0701244,24.304 L15.0075734,16.304 L15.7318591,15.136 L14.7568591,13.888 L17.6261448,12.348 C17.7286083,12.2924104 17.7927064,12.1850324 17.7932877,12.068 L17.7932877,10.852 C18.0741595,10.3556347 18.2680054,9.81441249 18.3663489,9.252 C18.5892061,9.252 18.8876754,8.916 19.2060428,7.788 C19.6278795,6.296 19.2060428,6.032 18.8279816,6.048 C19.779104,1.668 17.331655,1.648 17.331655,1.648 C17.1286959,0.732 15.8313489,-0.224 14.621553,0.048 C13.4117571,0.32 10.9205326,0.016 10.9205326,0.016 C10.9200869,0.35802288 11.0648631,0.683984845 11.3184918,0.912 C9.12971626,2.252 9.63114483,5.208 9.83012443,6.06 C9.45604279,6.06 9.07002239,6.348 9.48389994,7.804 C9.80226728,8.936 10.0967571,9.252 10.3235938,9.268 C10.4169226,9.83173983 10.6110775,10.3738246 10.896655,10.868 L10.896655,10.868 L10.896655,12.1 C10.8972364,12.2170324 10.9613345,12.3244104 11.0637979,12.38 L13.9330836,13.92 L12.9580836,15.168 L13.6823693,16.324 L12.6198183,24.324 L10.6101244,13.212 C10.5937169,13.1260786 10.5377512,13.0530648 10.4592795,13.0152052 C10.3808078,12.9773457 10.2891248,12.9791246 10.2121652,13.02 C8.38037942,14.0421466 6.6151783,15.1804478 4.92726728,16.428 C4.28970255,16.9183148 3.7347569,17.5085204 3.28369585,18.176 C2.77891832,18.9395619 2.41370761,19.7875114 2.20522647,20.68 L0.0642060587,29.384 C-0.0525894744,29.8606405 -0.00921319812,30.362729 0.187573406,30.812 L2.141553,35.296 Z M24.3038999,30.148 L23.0702265,34.796 L22.9627775,25.892 L24.3038999,30.148 Z M5.7470632,25.888 L5.63961422,34.792 L4.40594075,30.144 L5.7470632,25.888 Z" id="Shape"></path>
            </g>
            <g id="noun_625435_cc" transform="translate(212.000000, 110.000000)" fill-rule="nonzero" fill="#888888">
                <path d="M33.7102041,0.176 L28.2367347,0.176 C25.2762418,0.171426635 22.7504638,2.2741708 22.27644,5.13802554 C21.8024162,8.00188027 23.5204418,10.7792403 26.3306122,11.692 L26.3306122,14.492 C26.3293318,14.6110553 26.4019387,14.7189491 26.5141115,14.7646797 C26.6262842,14.8104103 26.7555547,14.7848178 26.8408163,14.7 L29.6163265,11.98 L33.6979592,11.98 C37.0297015,11.98 39.7306122,9.33310744 39.7306122,6.068 C39.7306122,2.80289256 37.0297015,0.156 33.6979592,0.156 L33.7102041,0.176 Z M32.4857143,8.104 C32.2595183,8.37364954 31.9525195,8.56675889 31.6081633,8.656 C31.5421365,8.6638794 31.4822203,8.6977394 31.4421886,8.74979608 C31.4021568,8.80185276 31.3854535,8.86762764 31.3959184,8.932 C31.3959184,9.084 31.3959184,9.236 31.3959184,9.388 C31.4036382,9.44477939 31.3845225,9.50191037 31.3439943,9.54318557 C31.3034661,9.58446078 31.2459472,9.60537679 31.1877551,9.6 L30.6816327,9.6 C30.6208891,9.60402764 30.5614827,9.58126728 30.5196331,9.53793317 C30.4777835,9.49459906 30.4578614,9.43521699 30.4653061,9.376 C30.4653061,9.264 30.4653061,9.152 30.4653061,9.04 C30.4653061,8.796 30.4653061,8.784 30.2122449,8.748 C29.9032182,8.70773867 29.6019865,8.62281609 29.3183673,8.496 C29.0979592,8.392 29.0734694,8.336 29.1387755,8.096 C29.2040816,7.856 29.2326531,7.756 29.2857143,7.588 C29.3387755,7.42 29.4,7.368 29.5836735,7.464 C29.8937133,7.61890631 30.2296892,7.71781875 30.5755102,7.756 C30.7956068,7.78623683 31.0199506,7.75719912 31.2244898,7.672 C31.4023717,7.60983505 31.5301403,7.45578498 31.5558868,7.27243611 C31.5816332,7.08908724 31.5010742,6.9069416 31.3469388,6.8 C31.2337101,6.71286754 31.1087131,6.6415231 30.9755102,6.588 C30.6274583,6.45976077 30.2880085,6.31013024 29.9591837,6.14 C29.43484,5.89493271 29.1126842,5.36453534 29.1428571,4.796 C29.1670166,4.15128482 29.6145433,3.59618656 30.2489796,3.424 C30.5183673,3.328 30.522449,3.332 30.522449,3.052 C30.522449,2.96 30.522449,2.864 30.522449,2.772 C30.522449,2.564 30.5632653,2.528 30.7755102,2.52 L30.9714286,2.52 C31.4244898,2.52 31.4244898,2.52 31.4244898,2.964 C31.4244898,3.276 31.4244898,3.28 31.7428571,3.328 C31.9849429,3.36572489 32.2209566,3.43430611 32.444898,3.532 C32.5010258,3.54721184 32.547849,3.58519757 32.5735799,3.6363944 C32.5993109,3.68759123 32.6014984,3.74712199 32.5795918,3.8 C32.522449,3.992 32.4693878,4.2 32.4081633,4.372 C32.3469388,4.544 32.2897959,4.576 32.1142857,4.496 C31.7730375,4.33871994 31.3967518,4.26854546 31.0204082,4.292 C30.9182024,4.2941698 30.8172468,4.3144992 30.722449,4.352 C30.5594464,4.38958574 30.4364057,4.52092752 30.412094,4.68329352 C30.3877824,4.84565953 30.4671324,5.00610598 30.6122449,5.088 C30.7590903,5.19914373 30.921241,5.28937096 31.0938776,5.356 C31.3952355,5.47289125 31.6895858,5.60643904 31.9755102,5.756 C32.3971013,5.96941193 32.6988299,6.35684008 32.7976599,6.81166382 C32.8964899,7.26648756 32.782006,7.74077436 32.4857143,8.104 L32.4857143,8.104 Z M2.46938776,35.456 C2.57266669,35.6861865 2.8046386,35.8351284 3.06122449,35.836 L26.8979592,35.836 C27.1545451,35.8351284 27.386517,35.6861865 27.4897959,35.456 L29.5102041,30.972 C29.7120365,30.522729 29.756525,30.0206405 29.6367347,29.544 L27.4244898,20.772 C27.259144,20.0812346 26.9938753,19.4171831 26.6367347,18.8 C26.1295278,17.9402559 25.4540119,17.1871735 24.6489796,16.584 C22.9218115,15.3355713 21.1154521,14.1959425 19.2408163,13.172 C19.1618835,13.1311246 19.0678496,13.1293457 18.9873658,13.1672052 C18.9068821,13.2050648 18.8494813,13.2780786 18.8326531,13.364 L16.7346939,24.464 L15.644898,16.464 L16.3877551,15.296 L15.3877551,14.048 L18.3306122,12.508 C18.435703,12.4524104 18.5014446,12.3450324 18.5020408,12.228 L18.5020408,11.012 C18.7901885,10.5156681 18.9890096,9.974433 19.0897959,9.412 C19.3183673,9.412 19.6244898,9.076 19.9510204,7.948 C20.3836735,6.456 19.9510204,6.192 19.5632653,6.208 C20.5387755,1.828 18.0285714,1.808 18.0285714,1.808 C17.8204082,0.892 16.4897959,-0.064 15.2489796,0.208 C14.0081633,0.48 11.4530612,0.176 11.4530612,0.176 C11.4526041,0.51802288 11.6010926,0.843984845 11.8612245,1.072 C9.61632653,2.412 10.1306122,5.368 10.3346939,6.22 C9.95102041,6.22 9.55510204,6.508 9.9755102,7.964 C10.3020408,9.096 10.6040816,9.412 10.8367347,9.428 C10.9324566,9.99173983 11.1315897,10.5338246 11.4244898,11.028 L11.4244898,11.028 L11.4244898,12.26 C11.425086,12.3770324 11.4908277,12.4844104 11.5959184,12.54 L14.5387755,14.08 L13.5387755,15.328 L14.2816327,16.496 L13.1918367,24.496 L11.1387755,13.372 C11.1219472,13.2860786 11.0645465,13.2130648 10.9840627,13.1752052 C10.903579,13.1373457 10.8095451,13.1391246 10.7306122,13.18 C8.8504609,14.2020002 7.038631,15.3403038 5.30612245,16.588 C4.6522099,17.0783148 4.08303488,17.6685204 3.62040816,18.336 C3.10268762,19.0995619 2.72811252,19.9475114 2.51428571,20.84 L0.326530612,29.544 C0.206740322,30.0206405 0.25122881,30.522729 0.453061224,30.972 L2.46938776,35.456 Z M25.1877551,30.308 L23.9183673,34.952 L23.8081633,26.048 L25.1877551,30.308 Z M6.15510204,26.048 L6.04081633,34.952 L4.7755102,30.308 L6.15510204,26.048 Z" id="Shape"></path>
            </g>
            <g id="noun_625432_cc" transform="translate(277.000000, 110.000000)" fill-rule="nonzero" fill="#888888">
                <path d="M26.1697959,14.72 L28.8759184,12 L32.8555102,12 C36.1039589,12 38.7373469,9.35310741 38.7373469,6.088 C38.7373469,2.82289259 36.1039589,0.176000049 32.8555102,0.176 L27.5308163,0.176 C24.6443357,0.171426635 22.1817022,2.2741708 21.719529,5.13802554 C21.2573558,8.00188027 22.9324308,10.7792403 25.6723469,11.692 L25.6723469,14.492 C25.6622444,14.6147412 25.7298476,14.7306569 25.8413355,14.7817562 C25.9528235,14.8328554 26.0842227,14.8081501 26.1697959,14.72 Z M26.627449,3.348 L33.7668367,3.348 L33.7668367,4.548 L26.6314286,4.548 L26.627449,3.348 Z M26.627449,5.5 L33.7668367,5.5 L33.7668367,6.7 L26.6314286,6.7 L26.627449,5.5 Z M26.627449,7.652 L30.9771429,7.652 L30.9771429,8.852 L26.6314286,8.852 L26.627449,7.652 Z M2.40765306,35.456 C2.50835002,35.6861865 2.73452264,35.8351284 2.98469388,35.836 L26.2255102,35.836 C26.4756814,35.8351284 26.7018541,35.6861865 26.802551,35.456 L28.772449,30.972 C28.9692356,30.522729 29.0126119,30.0206405 28.8958163,29.544 L26.7388776,20.772 C26.5776654,20.0812346 26.3190284,19.4171831 25.9708163,18.8 C25.4762896,17.9402559 24.8176616,17.1871735 24.0327551,16.584 C22.3487723,15.3355624 20.5875713,14.1959332 18.7597959,13.172 C18.6828364,13.1311246 18.5911533,13.1293457 18.5126817,13.1672052 C18.43421,13.2050648 18.3782443,13.2780786 18.3618367,13.364 L16.3163265,24.464 L15.2537755,16.464 L15.9780612,15.296 L15.0030612,14.048 L17.8723469,12.508 C17.9748104,12.4524104 18.0389085,12.3450324 18.0394898,12.228 L18.0394898,11.012 C18.3203616,10.5156347 18.5142076,9.97441249 18.612551,9.412 C18.8354082,9.412 19.1338776,9.076 19.4522449,7.948 C19.8740816,6.456 19.4522449,6.192 19.0741837,6.208 C20.0253061,1.828 17.5778571,1.808 17.5778571,1.808 C17.374898,0.892 16.077551,-0.064 14.8677551,0.208 C13.6579592,0.48 11.1667347,0.176 11.1667347,0.176 C11.166289,0.51802288 11.3110653,0.843984845 11.5646939,1.072 C9.37591837,2.412 9.87734694,5.368 10.0763265,6.22 C9.7022449,6.22 9.31622449,6.508 9.73010204,7.964 C10.0484694,9.096 10.3429592,9.412 10.5697959,9.428 C10.6631247,9.99173983 10.8572796,10.5338246 11.1428571,11.028 L11.1428571,11.028 L11.1428571,12.26 C11.1434385,12.3770324 11.2075366,12.4844104 11.31,12.54 L14.1792857,14.08 L13.2042857,15.328 L13.9285714,16.496 L12.8660204,24.496 L10.8603061,13.372 C10.8438986,13.2860786 10.7879329,13.2130648 10.7094612,13.1752052 C10.6309895,13.1373457 10.5393065,13.1391246 10.4623469,13.18 C8.62921043,14.2020188 6.86267743,15.3403217 5.17346939,16.588 C4.53590465,17.0783148 3.980959,17.6685204 3.52989796,18.336 C3.02512043,19.0995619 2.65990971,19.9475114 2.45142857,20.84 L0.318367347,29.544 C0.201571814,30.0206405 0.24494809,30.522729 0.441734694,30.972 L2.40765306,35.456 Z M24.5580612,30.308 L23.3204082,34.952 L23.2129592,26.048 L24.5580612,30.308 Z M6.00122449,26.048 L5.88979592,34.952 L4.65612245,30.308 L6.00122449,26.048 Z" id="Shape"></path>
            </g>
            <text id="1.-Branch-from-main" font-family="MyriadPro-Regular, Myriad Pro" font-size="18" font-weight="normal" fill="#616161">
                <tspan x="82.52" y="185">1. </tspan>
                <tspan x="43.028" y="204">Branch from</tspan>
                <tspan x="49.643" y="223">main code</tspan>
            </text>
            <text id="3.-Integrate-and-dep" font-family="MyriadPro-Regular, Myriad Pro" font-size="18" font-weight="normal" fill="#616161">
                <tspan x="550.02" y="185">3. </tspan>
                <tspan x="522.255" y="204">Integrate </tspan>
                <tspan x="514.236" y="223">and deploy</tspan>
            </text>
            <text id="2.-Create-and-valida" font-family="MyriadPro-Regular, Myriad Pro" font-size="18" font-weight="normal" fill="#616161">
                <tspan x="302.52" y="32">2. </tspan>
                <tspan x="284.709" y="51">Create </tspan>
                <tspan x="263.01" y="70">and validate</tspan>
            </text>
            <path d="M237.5,155.5 L248.5,187.5" id="Line" stroke="#979797" stroke-linecap="square"></path>
            <path id="Line-decoration-1" d="M242.152079,178.261824 L248.5,187.5 L247.826198,176.311345" stroke="#979797" stroke-linecap="square"></path>
            <path d="M287.5,155.5 L278.5,187.5" id="Line" stroke="#979797" stroke-linecap="square"></path>
            <path id="Line-decoration-1" d="M278.536099,176.291133 L278.5,187.5 L284.312005,177.915607" stroke="#979797" stroke-linecap="square"></path>
            <path d="M357.5,155.5 L357.5,187.5" id="Line" stroke="#979797" stroke-linecap="square"></path>
            <path id="Line-decoration-1" d="M354.5,176.7 L357.5,187.5 L360.5,176.7" stroke="#979797" stroke-linecap="square"></path>
        </g>
    </g>
</svg>