<?xml version="1.0" encoding="UTF-8"?>
<svg width="638px" height="302px" viewBox="0 0 638 302" version="1.1" xmlns="http://www.w3.org/2000/svg" xmlns:xlink="http://www.w3.org/1999/xlink" style="background: #FFFFFF;">
    <!-- Generator: Sketch 44.1 (41455) - http://www.bohemiancoding.com/sketch -->
    <title>Artboard</title>
    <desc>Created with Sketch.</desc>
    <defs></defs>
    <g id="Automated-Kubernetes" stroke="none" stroke-width="1" fill="none" fill-rule="evenodd">
        <g id="Artboard">
            <g id="kubernetes" transform="translate(400.000000, 110.000000)" fill-rule="nonzero">
                <g id="layer1">
                    <g id="g3052">
                        <path d="M51.3399324,0.701388889 C50.4275943,0.755841314 49.5353906,0.994350999 48.7162162,1.40277778 L13.222973,18.4815972 C11.3683341,19.3715612 10.0179174,21.0656821 9.55533784,23.0827083 L0.862972973,61.4065972 C0.448550451,63.202634 0.783118125,65.0913731 1.78858108,66.6319444 C1.90921171,66.8189815 2.0368018,66.9990046 2.17135135,67.1720139 L26.7173649,97.9279167 C28.0153101,99.5296486 29.9615725,100.454974 32.0135135,100.445903 L71.3762162,100.445903 C73.4352476,100.450241 75.3853186,99.5140045 76.6793243,97.8998611 L101.211419,67.1369444 C102.497923,65.5281146 102.980253,63.4130551 102.519797,61.3995833 L93.7647973,23.040625 C93.3022178,21.0235987 91.9518011,19.3294779 90.0971622,18.4395139 L54.6317568,1.40277778 C53.6097213,0.895882094 52.4780832,0.654764001 51.3399324,0.701388889 Z" id="path3055" fill="#326CE5"></path>
                        <path d="M51.6948649,13.76125 C50.4720695,13.847548 49.5433123,14.9052517 49.607027,16.1389583 C49.607027,16.1389583 49.607027,16.1810417 49.607027,16.1950694 C49.607027,16.3704167 49.607027,16.5878472 49.607027,16.7421528 C49.6656018,17.4252588 49.7631961,18.1043943 49.8993243,18.7761806 C50.0941886,20.0614818 50.1641147,21.3628825 50.1081081,22.661875 C49.985907,23.0906797 49.7444027,23.4752408 49.4121622,23.7700694 L49.3634459,24.6748611 C48.0729392,24.7827537 46.7915581,24.9819719 45.5287838,25.2710417 C40.2167798,26.4774327 35.3840579,29.2570966 31.6516216,33.2528472 L30.8860811,32.7057639 C30.4659497,32.8311189 30.0138249,32.7858046 29.6264189,32.5795139 C28.5913775,31.8078147 27.6334056,30.9363131 26.7660811,29.9773611 C26.3309332,29.4528816 25.8662012,28.9540711 25.3741892,28.4834028 C25.2419595,28.3711806 25.0470946,28.216875 24.9009459,28.1046528 C24.4811496,27.7637473 23.9641509,27.5671276 23.4255405,27.5435417 C22.7742561,27.5100013 22.1461168,27.7913577 21.7343919,28.3010417 C21.0153856,29.3182674 21.2488594,30.7300661 22.2563514,31.4572917 L22.2563514,31.4572917 C22.3955405,31.5695139 22.569527,31.7168056 22.6947973,31.815 C23.2614124,32.1948611 23.8493039,32.5414556 24.4555405,32.8530556 C25.5848648,33.4855777 26.6500939,34.2279081 27.6360135,35.0694444 C27.8891187,35.4329032 28.0361798,35.8605293 28.0605405,36.3038889 L28.7564865,36.9140972 C25.0042147,42.5887494 23.4627406,49.4597472 24.4277027,56.2093056 L23.5368919,56.4688194 C23.3049051,56.841769 22.9934833,57.1580223 22.6252027,57.3946528 C21.3796483,57.7293286 20.1046686,57.9407465 18.8183784,58.0259028 C18.1361606,58.0401531 17.4553247,58.0940156 16.7792568,58.1872222 L16.2155405,58.3204861 L16.1529054,58.3204861 C15.3519021,58.4279468 14.6802515,58.9830445 14.4188345,59.7536399 C14.1574176,60.5242353 14.3512752,61.3775588 14.919337,61.9567546 C15.4873988,62.5359504 16.3317906,62.741226 17.0993919,62.4867361 L17.0993919,62.4867361 L17.1411486,62.4867361 L17.7187838,62.4236111 C18.3671769,62.226688 19.0038496,61.9925084 19.6256757,61.7222222 C20.8216192,61.2371457 22.0616246,60.8706913 23.3281081,60.6280556 C23.7664691,60.6552254 24.1884529,60.8058975 24.5460135,61.0629167 L25.4716216,60.9015972 C27.5430612,67.3804965 31.898095,72.8699832 37.7133108,76.3321528 L37.3235811,77.1527778 C37.5031681,77.5273458 37.5685575,77.9471583 37.5114865,78.3591667 C36.9840978,79.5874287 36.3408743,80.761802 35.5906757,81.8661111 C35.1779479,82.4140233 34.7968667,82.985432 34.4493243,83.5775 C34.3658108,83.7388194 34.2614189,83.9843056 34.1779054,84.1526389 C33.7714029,84.8530009 33.7915417,85.7245255 34.2299531,86.4050571 C34.6683645,87.0855887 35.450094,87.4587776 36.2502996,87.369548 C37.0505052,87.2803183 37.7323767,86.7439257 38.0125676,85.9832639 L38.0125676,85.9832639 C38.0960811,85.8149306 38.2074324,85.5975 38.277027,85.4361806 C38.5184871,84.7939694 38.7229712,84.1382497 38.8894595,83.4722917 C39.4531757,82.0695139 39.7593919,80.5615278 40.5318919,79.6286806 C40.7840488,79.3900077 41.1017907,79.233561 41.4435811,79.1797917 L41.9237838,78.3030556 C48.2261316,80.7455563 55.2003392,80.7630345 61.5146622,78.3521528 L61.9391892,79.1727778 C62.3727202,79.2409639 62.7624757,79.4776533 63.0248649,79.8320833 C63.6246456,80.9809384 64.1117949,82.1860201 64.4793919,83.4302083 C64.6482483,84.0962867 64.8550552,84.7520036 65.0987838,85.3940972 C65.1683784,85.5554167 65.2797297,85.7728472 65.3632432,85.9411806 C65.6434341,86.7018423 66.3253056,87.238235 67.1255112,87.3274646 C67.9257168,87.4166942 68.7074463,87.0435053 69.1458577,86.3629737 C69.5842691,85.6824421 69.6044079,84.8109176 69.1979054,84.1105556 C69.1143919,83.9422222 69.0030405,83.6967361 68.919527,83.5354167 C68.5719135,82.9456448 68.19083,82.3765744 67.7781757,81.8310417 C67.0438822,80.7636776 66.4145561,79.6267292 65.8991216,78.4363194 C65.7965243,77.9966516 65.8743121,77.5338617 66.1148649,77.1527778 C65.9785285,76.8730815 65.8599785,76.5849306 65.7599324,76.2900694 C71.564798,72.8038603 75.9002895,67.2940754 77.9459459,60.8034028 L78.8506757,60.9647222 C79.1746884,60.6661271 79.6019581,60.5074808 80.0407432,60.5228472 C81.3072268,60.765483 82.5472321,61.1319373 83.7431757,61.6170139 C84.3640951,61.9015794 85.0007829,62.1498156 85.6500676,62.3604861 C85.8031757,62.4025694 86.0258784,62.4376389 86.1998649,62.4797222 L86.2416216,62.4797222 L86.2416216,62.4797222 C87.0092229,62.7342121 87.8536148,62.5289365 88.4216766,61.9497407 C88.9897384,61.3705449 89.1835959,60.5172215 88.922179,59.746626 C88.660762,58.9760306 87.9891114,58.420933 87.1881081,58.3134722 C87.0071622,58.2713889 86.7496622,58.20125 86.5687162,58.1661806 C85.8926483,58.0729739 85.2118123,58.0191115 84.5295946,58.0048611 C83.2432993,57.9197493 81.9683154,57.7083306 80.7227703,57.3736111 C80.3372899,57.1568265 80.0192239,56.836273 79.8041216,56.4477778 L78.9481081,56.1952778 C79.865458,49.4486418 78.2928575,42.5973825 74.5288514,36.9421528 L75.280473,36.2407639 C75.250109,35.7995705 75.3925216,35.3639552 75.6771622,35.0273611 C76.6555627,34.1796489 77.7137854,33.4302807 78.8367568,32.7899306 C79.4429342,32.4782215 80.0308196,32.1316306 80.5975,31.751875 C80.7366892,31.6466667 80.9176351,31.4923611 81.0637838,31.373125 C81.7623992,30.9351302 82.1493954,30.1317623 82.0587779,29.3076102 C81.9681604,28.4834582 81.4160316,27.7849708 80.6392164,27.5117506 C79.8624011,27.2385304 78.9989367,27.4391276 78.4191892,28.0275 C78.2730405,28.1397222 78.0781757,28.2940278 77.9459459,28.40625 C77.4540534,28.877038 76.989328,29.3758415 76.5540541,29.9002083 C75.7126396,30.869772 74.7803953,31.7552841 73.7702703,32.5444444 C73.3623965,32.7109541 72.9165303,32.7595328 72.4827703,32.6847222 L71.675473,33.266875 C67.0200654,28.3479396 60.7509266,25.2997656 54.0332432,24.6888889 C54.0332432,24.4013194 53.9914865,23.8893056 53.984527,23.735 C53.6232392,23.4849233 53.3734354,23.1022521 53.2885811,22.6688889 C53.2447536,21.3710934 53.3263317,20.0720791 53.5321622,18.7902083 C53.6682904,18.1184221 53.7658847,17.4392865 53.8244595,16.7561806 C53.8244595,16.5808333 53.8244595,16.3353472 53.8244595,16.1459722 C53.8881742,14.9122656 52.959417,13.8545619 51.7366216,13.7682639 L51.7366216,13.7682639 L51.6948649,13.76125 Z M49.0363514,30.3561111 L48.4030405,41.5783333 L48.3543243,41.5783333 C48.324762,42.2728558 47.9186485,42.8947322 47.2973995,43.1967889 C46.6761505,43.4988455 45.9404202,43.4321435 45.3826351,43.0231944 L45.3826351,43.0231944 L36.2518243,36.5002778 C39.1588508,33.6226808 42.805851,31.6209419 46.7814865,30.7208333 C47.5264556,30.5606433 48.2790579,30.4389106 49.0363514,30.3561111 L49.0363514,30.3561111 Z M54.3533784,30.3561111 C59.1490973,30.9558349 63.6164776,33.1269041 67.0683108,36.5353472 L58.0210135,43.0161806 L58.0210135,43.0161806 C57.4620592,43.4667295 56.6971266,43.556655 56.0502839,43.2478595 C55.4034413,42.939064 54.987909,42.2855977 54.9797297,41.5643056 L54.9797297,41.5643056 L54.3533784,30.3561111 Z M32.9321622,40.7226389 L41.2835135,48.2345139 L41.2835135,48.2836111 C41.8026985,48.7409203 42.0304212,49.4488393 41.8762239,50.1261629 C41.7220266,50.8034866 41.2108743,51.3405543 40.5458108,51.5240278 L40.5458108,51.5590972 L29.8282432,54.66625 C29.2968677,49.7999095 30.3889879,44.8938216 32.9321622,40.7226389 Z M70.3949324,40.7226389 C72.9318858,44.8828909 74.0533849,49.7634916 73.5893243,54.6241667 L62.8578378,51.51 L62.8578378,51.4679167 C62.1927744,51.2844431 61.6816221,50.7473755 61.5274248,50.0700518 C61.3732275,49.3927281 61.6009502,48.6848092 62.1201351,48.2275 L62.1201351,48.2275 L70.4088514,40.7506944 L70.4088514,40.7506944 L70.3949324,40.7226389 Z M49.9828378,48.8166667 L53.3999324,48.8166667 L55.4877703,51.4889583 L54.7291892,54.8275694 L51.6600676,56.3145139 L48.5839865,54.8275694 L47.8602027,51.4819444 L49.9828378,48.8166667 Z M60.9300676,57.9347222 C61.073412,57.9178987 61.2182096,57.9178987 61.3615541,57.9347222 L61.3615541,57.9347222 L72.4131757,59.8144444 C70.786286,64.4431674 67.6734139,68.3924579 63.5677027,71.0366667 L59.2945946,60.6140278 L59.2945946,60.6140278 C59.0558717,60.0469235 59.1057673,59.3982339 59.4283579,58.8749825 C59.7509485,58.3517312 60.3059164,58.0193142 60.9161486,57.9838194 L60.9161486,57.9838194 L60.9300676,57.9347222 Z M42.3691892,57.9838194 C42.993292,57.9936892 43.5714629,58.3163869 43.9108967,58.8443013 C44.2503306,59.3722157 44.306374,60.0358982 44.0603378,60.6140278 L44.0603378,60.6561111 L39.8150676,70.9945833 C35.7552055,68.3663813 32.6663905,64.4646906 31.0252703,59.8915972 L41.9794595,58.0188889 L41.9794595,58.0188889 C42.1021168,58.0067878 42.2256535,58.0067878 42.3483108,58.0188889 L42.3483108,58.0188889 L42.3691892,57.9838194 Z M51.6252703,62.5147917 C52.3351901,62.4932662 52.9969125,62.8755124 53.3372973,63.50375 L53.3790541,63.50375 L58.7795946,73.3231944 C58.0710075,73.562762 57.3509617,73.7664198 56.6221622,73.9334028 C52.6496635,74.8498992 48.5024349,74.6337516 44.6449324,73.3091667 L50.0315541,63.4897222 L50.0315541,63.4897222 C50.3601257,62.913123 50.9655913,62.5533976 51.6252703,62.5428472 L51.6252703,62.5147917 Z" id="path3059" stroke="#FFFFFF" stroke-width="0.25" fill="#FFFFFF"></path>
                    </g>
                </g>
            </g>
            <g id="noun_856058_cc" transform="translate(262.000000, 139.000000)" fill-rule="nonzero" fill="#000000">
                <path d="M46.5983951,30.7008 C46.0866173,26.379 42.5313951,22.9698 38.1213951,22.6428 L38.1213951,22.0098 C38.1213951,20.5458 36.9211975,19.3542 35.4439383,19.3542 L14.3793827,19.3542 C12.9033333,19.3542 11.7019259,20.5452 11.7019259,22.0098 L11.7019259,23.2026 C8.09225926,23.0604 5.14197531,20.3658 4.63382716,16.89 C5.76445679,16.437 6.56479012,15.3384 6.56479012,14.0562 L4.77961728,14.0562 C4.77961728,14.7654 4.19887654,15.3414 3.48383951,15.3414 C2.76880247,15.3414 2.18806173,14.7654 2.18806173,14.0562 L0.403493827,14.0562 C0.403493827,15.5244 1.45306173,16.7532 2.84683951,17.0454 C3.43725926,21.4266 7.15944444,24.837 11.7019259,24.9804 L11.7019259,35.0202 C11.7019259,36.4848 12.9033333,37.6764 14.3793827,37.6764 L17.6623827,37.6764 L17.6623827,42.174 C15.405358,42.591 13.6897531,44.5566 13.6897531,46.9146 L13.6897531,47.8002 L23.4213951,47.8002 L23.4213951,46.9146 C23.4213951,44.556 21.7057901,42.5916 19.4475556,42.174 L19.4475556,37.6764 L30.3769753,37.6764 L30.3769753,42.174 C28.1193457,42.591 26.4031358,44.5566 26.4031358,46.9146 L26.4031358,47.8002 L36.1347778,47.8002 L36.1347778,46.9146 C36.1347778,44.556 34.4197778,42.591 32.1627531,42.174 L32.1627531,37.6764 L35.4451481,37.6764 C36.9218025,37.6764 38.1226049,36.4854 38.1226049,35.0202 L38.1226049,24.4182 C41.5532099,24.735 44.3087037,27.3672 44.7944691,30.72 C43.5525309,31.1148 42.6505679,32.2692 42.6505679,33.6306 L44.4351358,33.6306 C44.4351358,32.9214 45.0164815,32.3454 45.7315185,32.3454 C46.4465556,32.3454 47.0272963,32.9214 47.0272963,33.6306 L48.8124691,33.6306 C48.8112593,32.2446 47.8760247,31.0734 46.5983951,30.7008 Z M21.5037407,46.0302 L15.6055926,46.0302 C15.9891235,44.7756 17.1663333,43.86 18.5534568,43.86 C19.943,43.86 21.1208148,44.7756 21.5037407,46.0302 Z M34.2171235,46.0302 L28.3195802,46.0302 C28.7031111,44.7756 29.880321,43.86 31.2692593,43.86 C32.6575926,43.86 33.8348025,44.7756 34.2171235,46.0302 Z M36.3368272,35.0208 C36.3368272,35.5086 35.936358,35.9064 35.4439383,35.9064 L14.3793827,35.9064 C13.8875679,35.9064 13.4870988,35.5092 13.4870988,35.0208 L13.4870988,22.0098 C13.4870988,21.522 13.8875679,21.1248 14.3793827,21.1248 L35.4445432,21.1248 C35.936358,21.1248 36.3374321,21.522 36.3374321,22.0098 L36.3374321,35.0208 L36.3368272,35.0208 Z" id="Shape"></path>
                <path d="M21.0361235,14.3514 C22.1256173,14.3514 23.0118519,13.4718 23.0118519,12.3906 C23.0118519,11.3094 22.1256173,10.4304 21.0361235,10.4304 C19.9466296,10.4304 19.0603951,11.3094 19.0603951,12.3906 C19.0603951,13.4718 19.9472346,14.3514 21.0361235,14.3514 Z M21.0361235,12.201 C21.1413827,12.201 21.227284,12.2856 21.227284,12.39 C21.227284,12.4956 21.1413827,12.5808 21.0361235,12.5808 C20.9308642,12.5808 20.8455679,12.4956 20.8455679,12.39 C20.8455679,12.2862 20.9308642,12.201 21.0361235,12.201 Z" id="Shape"></path>
                <path d="M28.5797037,14.3514 C29.6691975,14.3514 30.5554321,13.4718 30.5554321,12.3906 C30.5554321,11.3094 29.6691975,10.4304 28.5797037,10.4304 C27.4902099,10.4304 26.6027654,11.3094 26.6027654,12.3906 C26.6027654,13.4718 27.4902099,14.3514 28.5797037,14.3514 Z M28.5797037,12.201 C28.684963,12.201 28.7702593,12.2856 28.7702593,12.39 C28.7702593,12.4956 28.684358,12.5808 28.5797037,12.5808 C28.4750494,12.5808 28.3885432,12.4956 28.3885432,12.39 C28.3885432,12.2862 28.4744444,12.201 28.5797037,12.201 Z" id="Shape"></path>
                <path d="M19.953284,17.8926 L30.0684568,17.8926 C32.8572222,17.8926 35.1257407,15.5094 35.1257407,12.5808 C35.1257407,9.6522 32.8572222,7.269 30.0684568,7.269 L25.6058272,7.269 L25.6058272,4.368 C26.3081605,4.0356 26.7957407,3.3264 26.7957407,2.5044 C26.7957407,1.3662 25.861716,0.4392 24.7135432,0.4392 C23.5653704,0.4392 22.6313457,1.3656 22.6313457,2.5044 C22.6313457,3.3264 23.1195309,4.0362 23.8218642,4.368 L23.8218642,7.2696 L19.9538889,7.2696 C17.1651235,7.2696 14.8966049,9.6528 14.8966049,12.5814 C14.896,15.51 17.1645185,17.8926 19.953284,17.8926 Z M24.7135432,2.2092 C24.8774815,2.2092 25.0111728,2.3418 25.0111728,2.5044 C25.0111728,2.667 24.8774815,2.7996 24.7135432,2.7996 C24.5496049,2.7996 24.4159136,2.667 24.4159136,2.5044 C24.4153086,2.3418 24.5496049,2.2092 24.7135432,2.2092 Z M19.953284,9.0402 L30.0684568,9.0402 C31.8723827,9.0402 33.3405679,10.6278 33.3405679,12.5814 C33.3405679,14.5338 31.8723827,16.122 30.0684568,16.122 L19.953284,16.122 C18.149358,16.122 16.6805679,14.5338 16.6805679,12.5814 C16.6805679,10.6278 18.149358,9.0402 19.953284,9.0402 Z" id="Shape"></path>
                <path d="M19.953284,24.9744 L17.5734568,24.9744 C16.0968025,24.9744 14.896,26.1654 14.896,27.63 L14.896,29.9916 C14.896,31.455 16.0968025,32.6472 17.5734568,32.6472 L19.953284,32.6472 C21.4293333,32.6472 22.6307407,31.4556 22.6307407,29.9916 L22.6307407,27.63 C22.6307407,26.1654 21.4293333,24.9744 19.953284,24.9744 Z M20.8455679,29.991 C20.8455679,30.4788 20.4444938,30.876 19.952679,30.876 L17.5734568,30.876 C17.081037,30.876 16.6805679,30.4794 16.6805679,29.991 L16.6805679,27.63 C16.6805679,27.1422 17.081037,26.745 17.5734568,26.745 L19.953284,26.745 C20.4450988,26.745 20.8461728,27.1416 20.8461728,27.63 L20.8461728,29.991 L20.8455679,29.991 Z" id="Shape"></path>
                <rect id="Rectangle-path" x="26.498716" y="23.2044" width="7.14008642" height="1.77"></rect>
                <rect id="Rectangle-path" x="26.498716" y="26.1552" width="7.14008642" height="1.77"></rect>
                <rect id="Rectangle-path" x="26.498716" y="29.106" width="7.14008642" height="1.77"></rect>
                <rect id="Rectangle-path" x="26.498716" y="32.0568" width="7.14008642" height="1.77"></rect>
            </g>
            <g id="noun_368566_cc" transform="translate(135.000000, 138.000000)" fill-rule="nonzero" fill="#474747">
                <g id="Group">
                    <rect id="Rectangle-path" x="10.9531915" y="5.63809524" width="3.29361702" height="3.27619048"></rect>
                    <rect id="Rectangle-path" x="10.9531915" y="12.4952381" width="3.29361702" height="3.27619048"></rect>
                    <rect id="Rectangle-path" x="10.9531915" y="19.352381" width="3.29361702" height="3.27619048"></rect>
                    <rect id="Rectangle-path" x="10.9531915" y="26.2095238" width="3.29361702" height="3.27619048"></rect>
                    <path d="M33.1659574,0.380952381 L2.45106383,0.380952381 C1.14893617,0.380952381 0.0765957447,1.44761905 0.0765957447,2.74285714 L0.0765957447,40.6095238 C0.0765957447,41.9047619 1.14893617,42.9714286 2.45106383,42.9714286 L8.73191489,42.9714286 L8.73191489,47.9238095 L12.4085106,44.8761905 L16.0851064,47.9238095 L16.0851064,42.9714286 L33.1659574,42.9714286 C34.4680851,42.9714286 35.5404255,41.9047619 35.5404255,40.6095238 L35.5404255,2.74285714 C35.5404255,1.44761905 34.4680851,0.380952381 33.1659574,0.380952381 Z M33.2425532,40.6095238 C33.2425532,40.6857143 33.1659574,40.6857143 33.0893617,40.6857143 L16.0851064,40.6857143 L16.0851064,37.3333333 L8.65531915,37.3333333 L8.65531915,40.6857143 L2.37446809,40.6857143 C2.29787234,40.6857143 2.2212766,40.6095238 2.2212766,40.6095238 L2.2212766,35.8095238 L33.1659574,35.8095238 L33.1659574,40.6095238 L33.2425532,40.6095238 Z M33.2425532,33.447619 L8.42553191,33.447619 L8.42553191,2.66666667 L33.0893617,2.66666667 C33.1659574,2.66666667 33.2425532,2.74285714 33.2425532,2.74285714 L33.2425532,33.447619 L33.2425532,33.447619 Z" id="Shape"></path>
                </g>
            </g>
            <path d="M198.5,160.5 L239.5,160.5" id="Line" stroke="#979797" stroke-linecap="square"></path>
            <path id="Line-decoration-1" d="M239.5,160.5 L228.7,157.5 L228.7,163.5 L239.5,160.5 Z" stroke="#979797" stroke-linecap="square"></path>
            <path d="M336.5,161.5 L377.5,161.5" id="Line" stroke="#979797" stroke-linecap="square"></path>
            <path id="Line-decoration-1" d="M377.5,161.5 L366.7,158.5 L366.7,164.5 L377.5,161.5 Z" stroke="#979797" stroke-linecap="square"></path>
            <g id="continuous-pipe-log" transform="translate(261.000000, 91.000000)" fill-rule="nonzero" fill="#009FE3">
                <path d="M28.1428571,38.9468182 L21.5059524,38.9468182 L21.5059524,35.9095455 C21.5052471,28.2678749 27.6899565,22.0438951 35.3869048,21.9404545 L35.797619,21.9404545 C39.8727355,21.8205595 43.0904011,18.4650264 43.0104752,14.4185487 C42.9305494,10.372071 39.5828514,7.14433741 35.5061329,7.18312351 C31.4294144,7.22190961 28.1446464,10.5127449 28.1428571,14.56 L28.1428571,14.7254545 C28.0656572,21.0733185 23.6864537,26.5712783 17.4822041,28.1095875 C11.2779545,29.6478966 4.80899448,26.8396786 1.73428606,21.2733127 C-1.34042236,15.7069469 -0.247606414,8.78234459 4.39461723,4.41618746 C9.03684087,0.0500303226 16.0609777,-0.659616433 21.4940476,2.68863636 L17.9880952,8.27272727 C15.1176466,6.50698627 11.4090008,6.88351178 8.95802124,9.1895183 C6.50704171,11.4955248 5.92944684,15.1517131 7.55165226,18.091865 C9.17385768,21.0320169 12.588344,22.5175274 15.8654859,21.7088915 C19.1426277,20.9002555 21.4591638,18.0006131 21.5059524,14.6486364 L21.5059524,14.5363636 C21.5215869,6.87202845 27.7549984,0.651516301 35.4752953,0.595928549 C43.1955922,0.540340798 49.5192384,6.67043951 49.6468581,14.3337432 C49.7744778,21.997047 43.6584051,28.3313064 35.9404762,28.5290909 L35.4642857,28.5290909 C31.4025456,28.5904365 28.1423871,31.8768787 28.1428571,35.9095455 L28.1428571,38.9468182 Z" id="Shape"></path>
            </g>
        </g>
    </g>
</svg>