<?xml version="1.0" encoding="UTF-8"?>
<svg width="100px" height="100px" viewBox="0 0 100 100" version="1.1" xmlns="http://www.w3.org/2000/svg" xmlns:xlink="http://www.w3.org/1999/xlink">
    <!-- Generator: Sketch 48.2 (47327) - http://www.bohemiancoding.com/sketch -->
    <title>100x100</title>
    <desc>Created with Sketch.</desc>
    <defs></defs>
    <g id="Page-1" stroke="none" stroke-width="1" fill="none" fill-rule="evenodd">
        <g id="100x100" fill="#009FE3" fill-rule="nonzero">
            <g id="continuous-pipe-logo" transform="translate(8.000000, 17.000000)">
                <path d="M47.28,65.91 L36.13,65.91 L36.13,60.77 C36.1288152,47.8379422 46.519127,37.3050532 59.45,37.13 L60.14,37.13 C66.9861957,36.9271007 72.3918738,31.2485063 72.2575984,24.400621 C72.1233229,17.5527356 66.4991904,12.0904172 59.6503033,12.1560552 C52.8014161,12.2216932 47.283006,17.790799 47.28,24.64 L47.28,24.92 C47.1503042,35.662539 39.7932422,44.9667787 29.3701029,47.5700711 C18.9469636,50.1733635 8.07911072,45.4209945 2.91360058,36.0009907 C-2.25190957,26.580987 -0.415978775,14.8624293 7.38295694,7.473548 C15.1818927,0.0846666998 26.9824426,-1.11627396 36.11,4.55 L30.22,14 C25.3976463,11.0118229 19.1671213,11.6490199 15.0494757,15.5514925 C10.9318301,19.4539651 9.96147069,25.6413607 12.6867758,30.6170023 C15.4120809,35.592644 21.1484179,38.1065849 26.6540162,36.7381241 C32.1596145,35.3696632 36.0513952,30.462576 36.13,24.79 L36.13,24.6 C36.1562661,11.6295866 46.6283973,1.10256605 59.5984961,1.00849447 C72.568595,0.91442289 83.1923205,11.2884361 83.4067216,24.2571039 C83.6211227,37.2257718 73.3461205,47.9452878 60.38,48.28 L59.58,48.28 C52.7562766,48.3838156 47.2792103,53.945487 47.28,60.77 L47.28,65.91 Z" id="Shape"></path>
            </g>
        </g>
    </g>
</svg>